<?xml version="1.0" encoding="utf-8"?>
<!-- Generator: Adobe Illustrator 24.0.0, SVG Export Plug-In . SVG Version: 6.00 Build 0)  -->
<svg version="1.1" id="Layer_1" xmlns="http://www.w3.org/2000/svg" xmlns:xlink="http://www.w3.org/1999/xlink" x="0px" y="0px"
	 viewBox="0 0 58 52.2" style="enable-background:new 0 0 58 52.2;" xml:space="preserve">
<path id="coins" d="M58,17.4c-0.1-1.7-2.1-2.9-6-3.9c0.1-0.3,0.2-0.6,0.2-0.9V5.8h0C51.8,0.2,28.8,0,26.1,0S0.4,0.2,0,5.8h0v0.1l0,0
	v6.6c0,1.8,2.4,3.3,5.9,4.3c0,0.2-0.1,0.3-0.1,0.5h0v0.1l0,0v6.6C2,25.1,0.1,26.4,0,28h0v0.1l0,0v6.6c0,1.3,1.2,2.4,3,3.3
	c-0.1,0.2-0.1,0.4-0.1,0.6h0v0.1l0,0v6.6c0,3.2,7.2,5.2,15.3,6.1c0.1,0,0.1,0,0.2,0c0,0,0,0,0.1,0c1.6,0.2,3.1,0.3,4.7,0.4
	c0,0,0.1,0,0.1,0c0,0,0,0,0,0c2,0.1,3.9,0.2,5.8,0.2s3.8-0.1,5.7-0.2c0,0,0,0,0,0c0,0,0.1,0,0.1,0c1.6-0.1,3.1-0.2,4.7-0.4
	c0,0,0,0,0.1,0c0.1,0,0.1,0,0.2,0c8-0.9,15.3-2.9,15.3-6.1v-6.8h0c-0.1-1.2-1.1-2.2-3.1-3c0.1-0.3,0.2-0.6,0.2-0.9v-6.3
	c3.5-1.1,5.8-2.5,5.8-4.3L58,17.4L58,17.4z M50.2,35.1l-0.3,0.3c-0.7,0.6-1.6,1-2.5,1.3v-4.6c1-0.3,2-0.8,2.9-1.3v4
	C50.3,34.9,50.2,35,50.2,35.1z M28.5,39.6l-0.4,0c-0.3,0-0.7,0-1,0v-4.8l0.8,0H28c1,0,1.9,0,2.9-0.1v4.8c-0.2,0-0.4,0-0.6,0
	C29.7,39.6,29.1,39.6,28.5,39.6z M24.3,39.6c-0.4,0-0.9,0-1.3,0l-0.2,0c-0.5,0-1,0-1.6-0.1v-4.8c1,0,1.9,0.1,2.9,0.1h0.2l0.8,0v4.8
	c-0.2,0-0.4,0-0.6,0L24.3,39.6z M6.9,37.4L6.9,37.4l-0.1-4.7c0.9,0.2,1.9,0.5,2.9,0.7v4.7c-0.9-0.2-1.7-0.4-2.5-0.6
	C7.1,37.5,7,37.4,6.9,37.4L6.9,37.4z M27.2,45.4l0.8,0v4.8c-1.3,0-2.6-0.1-3.9-0.1v-4.8c1,0,1.9,0.1,2.9,0.1L27.2,45.4z M30.9,45.4
	c1,0,1.9,0,2.9-0.1v4.8c-1.2,0.1-2.5,0.1-3.9,0.1v-4.8l0.8,0L30.9,45.4z M38.7,45v4.8c-0.9,0.1-1.9,0.2-2.9,0.3v-4.8
	C36.7,45.1,37.7,45.1,38.7,45z M40.6,44.8c1-0.1,2-0.3,2.9-0.4v4.7c-0.9,0.2-1.9,0.3-2.9,0.4V44.8z M45.4,44c1-0.2,2-0.4,2.9-0.7V48
	c-0.9,0.2-1.8,0.5-2.9,0.7V44z M12.6,44v4.7c-1.1-0.2-2-0.5-2.9-0.7v-4.7C10.6,43.6,11.5,43.8,12.6,44L12.6,44z M14.5,44.4
	c0.9,0.2,1.9,0.3,2.9,0.4v4.8c-1-0.1-2-0.3-2.9-0.4L14.5,44.4z M19.3,45c1,0.1,1.9,0.2,2.9,0.2V50c-1-0.1-2-0.2-2.9-0.3V45z
	 M16.9,39.2l-0.3,0l-0.2,0v-4.8c1,0.1,1.9,0.2,2.9,0.2v4.8C18.5,39.3,17.7,39.3,16.9,39.2L16.9,39.2z M14.5,34.1v4.8
	c-1-0.1-2-0.3-2.9-0.4v-4.7C12.5,33.9,13.5,34,14.5,34.1z M33.5,39.4l-0.6,0v-4.8c1-0.1,1.9-0.1,2.9-0.2v4.8
	c-0.6,0.1-1.2,0.1-1.8,0.2C33.8,39.3,33.7,39.3,33.5,39.4z M37.7,38.9v-4.8c1-0.1,2-0.3,2.9-0.4v4.7C39.7,38.6,38.7,38.8,37.7,38.9z
	 M42.5,33.4c1-0.2,2-0.4,2.9-0.7v4.7c-0.9,0.2-1.8,0.5-2.9,0.7V33.4z M29.3,29c-0.7,0-1.4,0-2.1-0.1h-0.1v-4.8c1,0,1.9,0.1,2.9,0.1
	h0.2l0.8,0V29c-0.5,0-0.9,0-1.4,0L29.3,29z M6.8,15.2v-4.7c0.9,0.2,1.9,0.5,2.9,0.7v4.7l-0.4-0.1c-0.5-0.1-1-0.2-1.5-0.4
	C7.4,15.3,7.1,15.2,6.8,15.2z M24.3,12.6l0.8,0v4.8c-1.3,0-2.6,0-3.9-0.1v-4.8c1,0,1.9,0.1,2.9,0.1L24.3,12.6z M28,12.6
	c1,0,1.9,0,2.9-0.1v4.8c-0.2,0-0.3,0-0.5,0h0c-0.6,0-1.3,0-2,0.1l-0.3,0c-0.3,0-0.7,0-1,0v-4.8l0.8,0L28,12.6z M50,13L50,13
	l-0.4,0.3c-0.7,0.5-1.5,0.9-2.3,1.2V9.9c1-0.3,2-0.8,2.9-1.3v4C50.2,12.7,50.2,12.9,50,13L50,13z M37.7,16.7v-4.8
	c1-0.1,2-0.3,2.9-0.4v4.7C39.7,16.4,38.7,16.5,37.7,16.7z M42.5,15.9v-4.7c1-0.2,2-0.4,2.9-0.7v4.7C44.6,15.4,43.6,15.6,42.5,15.9z
	 M35.8,12.1v4.8c-0.9,0.1-1.9,0.2-2.9,0.3v-4.8C33.8,12.3,34.8,12.2,35.8,12.1L35.8,12.1z M16.4,16.9v-4.8c1,0.1,1.9,0.2,2.9,0.2
	v4.8C18.3,17.1,17.4,17,16.4,16.9L16.4,16.9z M14.5,11.9v4.8c-0.2,0-0.4,0-0.6-0.1l-0.4-0.1c-0.6-0.1-1.1-0.2-1.6-0.3l-0.3-0.1v-4.7
	C12.5,11.6,13.5,11.8,14.5,11.9z M24.9,28.7l-0.4,0c-0.6,0-1.2-0.1-1.8-0.2l-0.4,0c0,0-0.1,0-0.1,0v-4.8c1,0.1,1.9,0.2,2.9,0.2v4.8
	L24.9,28.7z M18.5,28c-0.4-0.1-0.7-0.1-1.1-0.2v-4.7c0.9,0.2,1.9,0.3,2.9,0.4v4.8C19.7,28.2,19.1,28.1,18.5,28L18.5,28z M15.5,22.7
	v4.7c-1.1-0.2-2-0.5-2.9-0.7v-4.7C13.5,22.3,14.4,22.5,15.5,22.7z M10.6,21.5v4.6c-1.1-0.3-2.1-0.9-2.8-1.7l-0.1-0.1
	c0,0,0-0.1,0-0.1v-4C8.6,20.7,9.6,21.2,10.6,21.5z M33.8,24.1c1,0,1.9,0,2.9-0.1v4.8c-1.3,0.1-2.6,0.1-3.9,0.1v-4.8l0.8,0L33.8,24.1
	z M46.3,27.9c-0.4,0.1-0.9,0.1-1.3,0.2c-0.3,0-0.5,0.1-0.8,0.1s-0.5,0.1-0.7,0.1v-4.8c1-0.1,2-0.3,2.9-0.4L46.3,27.9L46.3,27.9z
	 M39.8,28.7c-0.4,0-0.7,0-1.1,0.1v-4.8c1-0.1,1.9-0.1,2.9-0.2v4.8c-0.6,0.1-1.1,0.1-1.7,0.2L39.8,28.7z M50.8,26.9
	c-0.5,0.1-1,0.3-1.5,0.4c-0.2,0.1-0.5,0.1-0.7,0.2c-0.1,0-0.2,0-0.2,0v-4.7c1-0.2,2-0.4,2.9-0.7v4.7L50.8,26.9z M56.1,17.5
	c-0.1,0.7-1.6,1.5-4.2,2.4l0,0c-5.1,1.4-10.3,2.2-15.6,2.3c-0.3,0-0.7,0-1,0c-0.3,0-0.6,0-0.9,0c-0.8,0-1.6,0-2.5,0s-1.6,0-2.5,0
	c-0.3,0-0.6,0-0.9,0c-0.4,0-0.7,0-1,0C22.3,22,17,21.2,12,19.8l0,0c-2.6-0.8-4.1-1.7-4.2-2.3c0,0,0,0,0-0.1c0.1,0,0.1,0,0.2,0
	c0.4,0.1,0.8,0.2,1.2,0.3c1.9,0.4,4,0.8,6.3,1c0,0,0,0,0,0l0,0c1.5,0.2,3.1,0.3,4.8,0.4c0,0,0,0,0,0s0,0,0,0
	c1.2,0.1,2.4,0.1,3.6,0.1c0.7,0,1.5,0,2.2,0c0.5,0,1,0,1.6,0c6.1,0,12.2-0.8,18.1-2.2c0.2-0.1,0.4-0.1,0.6-0.2
	c0.1,0,0.2-0.1,0.4-0.1c0.3-0.1,0.7-0.2,1-0.3l0.2-0.1c0.3-0.1,0.5-0.2,0.8-0.3c0.1,0,0.1-0.1,0.2-0.1c0.3-0.1,0.5-0.2,0.8-0.4
	c0.1-0.1,0.2-0.1,0.3-0.2s0.2-0.1,0.3-0.2c0.1,0,0.1-0.1,0.2-0.1C54.8,16,55.9,17.1,56.1,17.5L56.1,17.5z M26.1,1.9
	c15.9,0,24,2.5,24.2,4c-0.1,0.7-1.6,1.5-4.2,2.3l0,0c-5.1,1.4-10.3,2.2-15.6,2.3c-0.3,0-0.7,0-1,0c-0.3,0-0.6,0-0.9,0
	c-0.8,0-1.6,0-2.5,0s-1.6,0-2.5,0c-0.3,0-0.6,0-0.9,0c-0.4,0-0.7,0-1,0c-5.3-0.1-10.5-0.9-15.6-2.3l0,0C3.5,7.4,2.1,6.5,1.9,5.9
	C2.1,4.4,10.2,1.9,26.1,1.9z M1.9,12.6v-4c0.9,0.5,1.9,1,2.9,1.3v4.6C3,13.8,1.9,13.1,1.9,12.6z M6.6,25.9C6.6,26,6.7,26,6.6,25.9
	c1.4,1.4,4.1,2.4,7.5,3.2l0.2,0.1c0.3,0.1,0.5,0.1,0.8,0.2c3.6,0.7,7.3,1.2,10.9,1.4h0c1.3,0.1,2.6,0.1,4,0.2c0.6,0,1.2,0,1.8,0
	c0.7,0,1.4,0,2,0c1.3,0,2.5-0.1,3.7-0.2c0,0,0,0,0,0s0,0,0,0c3.8-0.2,7.5-0.7,11.2-1.4C48,29.8,47,30.2,46,30.4l0,0
	c-5.4,1.5-11.1,2.3-16.7,2.4c-0.2,0-0.4,0-0.7,0c-0.2,0-0.5,0-0.7,0c-0.6,0-1.2,0-1.8,0c-0.8,0-1.6,0-2.5,0c-0.3,0-0.6,0-0.9,0
	c-0.4,0-0.7,0-1,0c-5.3-0.1-10.5-0.9-15.6-2.3l0,0c-2.7-0.8-4.1-1.7-4.2-2.4C2.1,27.7,3,26.8,6.6,25.9z M1.9,34.8v-4
	c0.9,0.5,1.9,1,2.9,1.3v4.6l-0.6-0.2l0,0C2.8,35.9,1.9,35.3,1.9,34.8z M4.8,45.4v-4c0.9,0.5,1.9,1,2.9,1.3v4.6
	C5.9,46.7,4.8,46,4.8,45.4L4.8,45.4z M50.3,47.4v-4.6c1-0.3,2-0.8,2.9-1.3v4C53.2,46,52.1,46.7,50.3,47.4L50.3,47.4z M53.2,38.7
	c-0.1,0.7-1.6,1.5-4.2,2.3l0,0c-5.1,1.4-10.3,2.2-15.6,2.3c-0.3,0-0.7,0-1,0c-0.3,0-0.6,0-0.9,0c-0.8,0-1.6,0-2.5,0s-1.6,0-2.5,0
	c-0.3,0-0.6,0-0.9,0c-0.4,0-0.7,0-1.1,0c-5.3-0.1-10.5-0.9-15.6-2.3l0,0c-2.6-0.8-4-1.6-4.2-2.3c0.3,0.1,0.6,0.2,0.9,0.3l0.1,0
	c0.3,0.1,0.5,0.2,0.8,0.2L7,39.4c0.2,0,0.3,0.1,0.5,0.1c4.2,1,8.5,1.6,12.9,1.8l0,0c1.5,0.1,3,0.1,4.6,0.2c0.4,0,0.8,0,1.2,0
	c0.5,0,1.1,0,1.6,0c1.4,0,2.8-0.1,4.2-0.2h0c0,0,0,0,0,0c1.7-0.1,3.3-0.2,4.8-0.4c0,0,0,0,0,0c0,0,0,0,0.1,0
	c1.7-0.2,3.3-0.4,4.9-0.7c0.3-0.1,0.6-0.1,0.9-0.2l0.2,0c2.4-0.4,4.8-1.2,7-2.3c0.1,0,0.2-0.1,0.3-0.2c0.1-0.1,0.2-0.1,0.3-0.2
	s0.2-0.1,0.3-0.2C52.6,37.9,53.1,38.5,53.2,38.7L53.2,38.7z M53.2,26.1v-4.6c1-0.3,2-0.8,2.9-1.3v4C56.1,24.7,55,25.4,53.2,26.1
	L53.2,26.1z"/>
</svg>
