<?xml version="1.0" encoding="utf-8"?>
<!-- Generator: Adobe Illustrator 24.0.0, SVG Export Plug-In . SVG Version: 6.00 Build 0)  -->
<svg version="1.1" id="rocket" xmlns="http://www.w3.org/2000/svg" xmlns:xlink="http://www.w3.org/1999/xlink" x="0px" y="0px"
	 viewBox="0 0 58 58" style="enable-background:new 0 0 58 58;" xml:space="preserve">
<g id="Group_117" transform="translate(28.5 27.235)">
	<g id="Group_116">
		<path id="Path_162" d="M1.9,0.3c-0.4-0.4-1.2-0.4-1.6,0c-0.4,0.4-0.4,1.2,0,1.6s1.2,0.4,1.6,0c0,0,0,0,0,0
			C2.4,1.5,2.4,0.8,1.9,0.3z"/>
	</g>
</g>
<g id="Group_119" transform="translate(35.186 11.489)">
	<g id="Group_118">
		<path id="Path_163" d="M9.7,1.7c-2.2-2.2-5.8-2.2-8,0c-2.2,2.2-2.2,5.8,0,8c2.2,2.2,5.8,2.2,8,0c0,0,0,0,0,0
			C11.9,7.5,11.9,3.9,9.7,1.7C9.7,1.7,9.7,1.7,9.7,1.7z M8.1,8.1c-1.3,1.3-3.5,1.3-4.8,0s-1.3-3.5,0-4.8c1.3-1.3,3.5-1.3,4.8,0
			c0,0,0,0,0,0C9.4,4.6,9.4,6.7,8.1,8.1L8.1,8.1z"/>
	</g>
</g>
<g id="Group_121" transform="translate(10.877 0)">
	<g id="Group_120">
		<path id="Path_164" d="M46.8,0.3C46.6,0.1,46.3,0,46,0c-4.6,0.3-9.2,1.3-13.6,2.8C27,4.6,22,7.6,18,11.5c-0.8,0.8-1.7,1.7-2.4,2.6
			C11.8,12,8.9,12.7,7,13.7C2.7,16,0,22.3,0,26.8c0,0.6,0.5,1.1,1.1,1.1c0.3,0,0.6-0.1,0.8-0.3c1.6-1.6,3.8-2.3,6-2L8.3,26
			c-0.8,1.8-1.4,3.6-1.9,5.5c-0.2,0.7-0.1,1.3,0.1,2c-1.1,0.5-2.2,1.3-3.1,2.2C0.6,38.5,0,45.6,0,45.9c0,0.6,0.4,1.2,1,1.2
			c0,0,0.1,0,0.1,0c0,0,0.1,0,0.1,0c0.3,0,7.4-0.6,10.3-3.5c0.9-0.9,1.6-1.9,2.2-3.1c0.6,0.3,1.3,0.3,2,0.1c1.9-0.5,3.7-1.1,5.5-1.9
			l0.4,0.4c0.3,2.2-0.5,4.4-2,6c-0.4,0.4-0.4,1.2,0,1.6c0.2,0.2,0.5,0.3,0.8,0.3c4.5,0,10.8-2.7,13.1-7c1-1.9,1.7-4.8-0.5-8.5
			c0.9-0.8,1.8-1.6,2.6-2.4c4-4.1,6.9-9,8.7-14.4c1.6-4.4,2.5-9,2.8-13.6C47.1,0.9,47,0.6,46.8,0.3z M2.5,24.3
			c0.7-3.4,2.7-7.1,5.5-8.6c1.9-1,4.2-0.9,6,0.3c-1.8,2.4-3.4,5-4.8,7.8c-0.2-0.2-0.4-0.3-0.6-0.4C6.6,23,4.4,23.3,2.5,24.3
			L2.5,24.3z M9.9,42c-1.6,1.6-5.2,2.4-7.5,2.7c0.3-2.3,1.2-6,2.7-7.5C6,36.3,6.9,35.7,8,35.3l3.8,3.8C11.4,40.2,10.8,41.2,9.9,42
			L9.9,42z M15.1,38.5c-0.4,0.1-0.7,0-1-0.3l-2.2-2.2L9,33c-0.3-0.3-0.4-0.6-0.3-1c0.4-1.5,0.9-2.9,1.4-4.3l9.4,9.4
			C18,37.6,16.6,38.1,15.1,38.5L15.1,38.5z M31.4,39.1c-1.5,2.8-5.2,4.8-8.6,5.5c1-1.9,1.3-4.1,0.9-6.2c-0.1-0.2-0.2-0.4-0.3-0.6
			c2.7-1.3,5.3-2.9,7.8-4.8C32.3,34.9,32.4,37.2,31.4,39.1L31.4,39.1z M34,27.6c-1,1-2.1,2-3.3,2.9c-2.8,2.2-5.8,4.1-9,5.6L11,25.4
			c1.5-3.2,3.4-6.3,5.6-9c0.9-1.1,1.9-2.2,2.9-3.3c3.7-3.5,8.1-6.3,12.9-7.9l9.5,9.5C40.2,19.5,37.5,23.9,34,27.6L34,27.6z
			 M42.7,12.3l-7.9-7.9c3.2-1,6.6-1.7,9.9-2C44.4,5.7,43.7,9.1,42.7,12.3z"/>
	</g>
</g>
<g id="Group_123" transform="translate(22.092 46.459)">
	<g id="Group_122">
		<path id="Path_165" d="M5.1,0.3C4.7-0.1,4-0.1,3.5,0.3L0.3,3.5C-0.1,4-0.2,4.7,0.3,5.1c0.4,0.5,1.1,0.5,1.6,0.1
			c0,0,0.1-0.1,0.1-0.1l3.2-3.2C5.6,1.5,5.6,0.8,5.1,0.3z"/>
	</g>
</g>
<g id="Group_125" transform="translate(6.071 30.439)">
	<g id="Group_124">
		<path id="Path_166" d="M5.1,0.3C4.7-0.1,4-0.1,3.5,0.3L0.3,3.5C-0.1,4-0.2,4.7,0.3,5.1c0.4,0.5,1.1,0.5,1.6,0.1
			c0,0,0.1-0.1,0.1-0.1l3.2-3.2C5.6,1.5,5.6,0.8,5.1,0.3z"/>
	</g>
</g>
<g id="Group_127" transform="translate(9.612 48.062)">
	<g id="Group_126">
		<path id="Path_167" d="M9.6,0.3C9.2-0.1,8.5-0.1,8,0.3L0.3,8C-0.1,8.5,0,9.2,0.4,9.6c0.4,0.4,1.1,0.4,1.5,0l7.7-7.7
			C10,1.5,10,0.8,9.6,0.3z"/>
	</g>
</g>
<g id="Group_129" transform="translate(0.549 48.062)">
	<g id="Group_128">
		<path id="Path_168" d="M9.6,0.3C9.2-0.1,8.5-0.1,8,0.3L0.3,8C-0.1,8.5,0,9.2,0.4,9.6c0.4,0.4,1.1,0.4,1.5,0l7.7-7.7
			C10,1.5,10,0.8,9.6,0.3z"/>
	</g>
</g>
<g id="Group_131" transform="translate(0 38.449)">
	<g id="Group_130">
		<path id="Path_169" d="M9.6,0.3C9.2-0.1,8.4-0.1,8,0.3L0.3,8c-0.5,0.4-0.5,1.1-0.1,1.6c0.4,0.5,1.1,0.5,1.6,0.1
			c0,0,0.1-0.1,0.1-0.1l7.7-7.7C10,1.5,10,0.8,9.6,0.3z"/>
	</g>
</g>
<g id="Group_133" transform="translate(31.704 22.429)">
	<g id="Group_132">
		<path id="Path_170" d="M3.5,0.3c-0.4-0.4-1.2-0.4-1.6,0L0.3,1.9c-0.5,0.4-0.5,1.1-0.1,1.6S1.4,4,1.9,3.6c0,0,0.1-0.1,0.1-0.1
			l1.6-1.6C4,1.5,4,0.8,3.5,0.3z"/>
	</g>
</g>
</svg>
