<?xml version="1.0" encoding="utf-8"?>
<!-- Generator: Adobe Illustrator 24.0.0, SVG Export Plug-In . SVG Version: 6.00 Build 0)  -->
<svg version="1.1" id="customer-service" xmlns="http://www.w3.org/2000/svg" xmlns:xlink="http://www.w3.org/1999/xlink" x="0px"
	 y="0px" viewBox="0 0 57.9 58" style="enable-background:new 0 0 57.9 58;" xml:space="preserve">
<g id="Group_169" transform="translate(0.001 9.355)">
	<g id="Group_168">
		<path id="Path_177" d="M47,41.2l-2.2-6.5c-0.8-2.3-2.7-3.9-5-4.4l-6.3-1.1v-0.5c1.1-0.6,2-1.5,2.8-2.5h1.9c1.5,0,2.8-1.3,2.8-2.8
			V12.2C41,5.4,35.6,0,28.9,0S16.7,5.4,16.7,12.2v6.5c0,1.8,1.2,3.3,3,3.7c0.5,2.7,2.2,4.9,4.5,6.3v0.5l-6.3,1.1
			c-2.4,0.4-4.3,2.1-5,4.4l-0.4,1.1l-3.2-3.2c-0.4-0.4-0.4-1,0-1.3l3.7-3.7l-6.9-6.9l-4.2,4.2c-2.6,2.6-2.6,6.7,0,9.3l12.6,12.6
			c2.5,2.5,6.7,2.6,9.2,0l4.6-4.2l-1.4-1.4L47,41.2z M39.2,23.4c0,0.5-0.4,0.9-0.9,0.9h-0.8c0.3-0.6,0.5-1.3,0.6-1.9
			c0.4-0.1,0.8-0.2,1.1-0.4V23.4z M38.2,20.3v-3.2c0.9,0.5,1.2,1.6,0.7,2.5C38.7,19.9,38.5,20.2,38.2,20.3L38.2,20.3z M19.5,20.3
			c-0.9-0.5-1.2-1.6-0.7-2.5c0.2-0.3,0.4-0.5,0.7-0.7V20.3z M19.5,14v1.1c-0.3,0.1-0.6,0.2-0.9,0.4v-3.3c0-5.7,4.6-10.3,10.3-10.3
			s10.3,4.6,10.3,10.3l0,0v3.3c-0.3-0.2-0.6-0.3-0.9-0.4V14h-0.9c-2.7,0-5.4-1.1-7.3-3l-1.1-1.1L27.8,11c-1.9,1.9-4.6,3-7.3,3
			L19.5,14z M21.4,20.6v-4.7c2.8-0.2,5.5-1.4,7.5-3.3c2,1.9,4.7,3.1,7.5,3.3v4.7c0,1.3-0.3,2.6-1,3.7h-6.5v1.9h4.9
			c-3.1,2.7-7.8,2.4-10.5-0.7C22,24.2,21.4,22.4,21.4,20.6L21.4,20.6z M31.7,29.5L31.7,29.5l-2.8,2.8l-2.8-2.8v0
			C27.9,30.1,29.8,30.1,31.7,29.5L31.7,29.5z M14.7,35.3c0.5-1.6,1.9-2.8,3.6-3.1l6.5-1.2l4.1,4.1l4.1-4.1l6.5,1.2
			c1.7,0.3,3.1,1.5,3.6,3.1l1.3,4H25.1l-3.6-3.6l-4,3.7c-0.4,0.4-1,0.4-1.3,0l-2-2L14.7,35.3z M6.1,23.3l4.3,4.3l-1,1l-4.3-4.3
			L6.1,23.3z M22.5,45.4c-1.8,1.8-4.8,1.8-6.6,0L3.2,32.8c-1.8-1.8-1.8-4.8,0-6.6l0.5-0.5L8,29.9l0,0c-1.1,1.1-1.1,2.9,0,4l6.7,6.7
			c0.5,0.5,1.2,0.8,2,0.8c0.7,0,1.4-0.3,2-0.8l0.1-0.1l4.3,4.3L22.5,45.4z M24.4,43.6l-4.3-4.3l1.2-1.1l4.3,4.3L24.4,43.6z"/>
	</g>
</g>
<g id="Group_171" transform="translate(39.157)">
	<g id="Group_170">
		<path id="Path_178" d="M15.9,0H2.8C1.3,0,0,1.3,0,2.8v7.5c0,1.5,1.3,2.8,2.8,2.8h2.5l-1,5.6l9-5.6h2.5c1.5,0,2.8-1.3,2.8-2.8V2.8
			C18.7,1.3,17.5,0,15.9,0z M16.8,10.3c0,0.5-0.4,0.9-0.9,0.9h-3.1l-5.9,3.7l0.6-3.7H2.8c-0.5,0-0.9-0.4-0.9-0.9V2.8
			c0-0.5,0.4-0.9,0.9-0.9h13.1c0.5,0,0.9,0.4,0.9,0.9L16.8,10.3z"/>
	</g>
</g>
<g id="Group_173" transform="translate(42.898 3.742)">
	<g id="Group_172">
		<rect id="Rectangle_82" x="0" y="0" width="11.2" height="1.9"/>
	</g>
</g>
<g id="Group_175" transform="translate(42.898 7.484)">
	<g id="Group_174">
		<rect id="Rectangle_83" x="0" y="0" width="7.5" height="1.9"/>
	</g>
</g>
<g id="Group_177" transform="translate(52.253 7.484)">
	<g id="Group_176">
		<rect id="Rectangle_84" x="0" y="0" width="1.9" height="1.9"/>
	</g>
</g>
<g id="Group_179" transform="translate(0 2.806)">
	<g id="Group_178">
		<path id="Path_179" d="M28.9,0C16.7,0,6.1,8.4,3.4,20.2l-1.8-3l-1.6,1l3.3,5.5l5.5-3.3l-1-1.6l-2.5,1.5c3.2-13,16.4-21,29.5-17.8
			c0.5,0.1,0.9,0.2,1.3,0.4l0.6-1.8C34.1,0.4,31.5,0,28.9,0z"/>
	</g>
</g>
<g id="Group_181" transform="translate(47.764 17.425)">
	<g id="Group_180">
		<path id="Path_180" d="M9.6,3.3L4.2,0L0.9,5.5l1.6,1l1.6-2.7C6.8,11.6,5.3,20.4,0,26.9l1.5,1.2c5.6-7,7.3-16.3,4.5-24.8l2.7,1.6
			L9.6,3.3z"/>
	</g>
</g>
</svg>
