<?xml version="1.0" encoding="utf-8"?>
<!-- Generator: Adobe Illustrator 24.0.0, SVG Export Plug-In . SVG Version: 6.00 Build 0)  -->
<svg version="1.1" id="support" xmlns="http://www.w3.org/2000/svg" xmlns:xlink="http://www.w3.org/1999/xlink" x="0px" y="0px"
	 viewBox="0 0 58 58" style="enable-background:new 0 0 58 58;" xml:space="preserve">
<g id="Group_135" transform="translate(4.833)">
	<g id="Group_134">
		<path id="Path_171" d="M14.5,0C6.5,0,0,6.5,0,14.5v10.6c0,3.7,3,6.8,6.8,6.8h1V30h-1c-2.7,0-4.8-2.2-4.8-4.8V14.5
			C2,7.6,7.7,2,14.6,2C21.5,2.1,27,7.6,27.1,14.5v10.6c0,2.7-2.2,4.8-4.8,4.8h-1v1.9h1c3.7,0,6.8-3,6.8-6.8V14.5
			C29,6.5,22.5,0,14.5,0z"/>
	</g>
</g>
<g id="Group_137" transform="translate(4.834 43.409)">
	<g id="Group_136">
		<path id="Path_172" d="M3.1,2.2L3.8,1L2.2,0L1.5,1.1c-2.1,3.4-2,7.7,0.4,10.9v2.6h1.9v-2.9c0-0.2-0.1-0.4-0.2-0.6
			C1.6,8.5,1.4,4.9,3.1,2.2z"/>
	</g>
</g>
<g id="Group_139" transform="translate(35.767)">
	<g id="Group_138">
		<path id="Path_173" d="M17.4,0H4.8C2.2,0,0,2.2,0,4.8v9.7c0,2.7,2.2,4.8,4.8,4.8h1.9v3.9c0,0.4,0.2,0.7,0.6,0.9
			c0.1,0,0.2,0.1,0.4,0.1c0.3,0,0.5-0.1,0.7-0.3l4.5-4.5h4.4c2.7,0,4.8-2.2,4.8-4.8V4.8C22.2,2.2,20.1,0,17.4,0z M20.3,14.5
			c0,1.6-1.3,2.9-2.9,2.9h-4.8c-0.3,0-0.5,0.1-0.7,0.3l-3.2,3.2v-2.5c0-0.5-0.4-1-1-1l0,0H4.8c-1.6,0-2.9-1.3-2.9-2.9V4.8
			c0-1.6,1.3-2.9,2.9-2.9h12.6c1.6,0,2.9,1.3,2.9,2.9V14.5z"/>
	</g>
</g>
<g id="Group_141" transform="translate(40.124 3.821)">
	<g id="Group_140" transform="translate(0 0)">
		<rect id="Rectangle_71" x="0" y="0" width="7.7" height="3.3"/>
	</g>
</g>
<g id="Group_143" transform="translate(48.913 3.821)">
	<g id="Group_142" transform="translate(0 0)">
		<rect id="Rectangle_72" x="0" y="0" width="4.4" height="3.3"/>
	</g>
</g>
<g id="Group_145" transform="translate(40.124 8.216)">
	<g id="Group_144" transform="translate(0 0)">
		<rect id="Rectangle_73" x="0" y="0" width="13.2" height="2.2"/>
	</g>
</g>
<g id="Group_147" transform="translate(40.124 12.611)">
	<g id="Group_146" transform="translate(0 0)">
		<rect id="Rectangle_74" x="0" y="0" width="7.7" height="2.2"/>
	</g>
</g>
<g id="Group_149" transform="translate(29.994 43.409)">
	<g id="Group_148">
		<path id="Path_174" d="M2.3,1.1L1.6,0L0,1l0.7,1.1c1.8,2.8,1.6,6.4-0.5,8.9C0.1,11.3,0,11.5,0,11.7v2.9h1.9V12
			C4.3,8.8,4.5,4.5,2.3,1.1z"/>
	</g>
</g>
<g id="Group_151" transform="translate(0 8.44)">
	<g id="Group_150">
		<path id="Path_175" d="M57,24.4h-8.7c-3.6,0-6.6,2.9-6.8,6.5l-2.9,5.2v-4c0-3.7-3-6.8-6.8-6.8h-3.5l0,0l0,0h-2.2
			c-1.1,0-1.9-0.9-1.9-1.9v-2.3c3-1.7,4.8-4.9,4.8-8.4V5.1c0-1.6-0.4-3.2-1.2-4.6c-0.2-0.4-0.8-0.6-1.3-0.4L10.2,7.8
			C9.9,7.9,9.7,8.3,9.7,8.7v4.2c0,3.4,1.8,6.6,4.8,8.4v2.3c0,1.1-0.9,1.9-1.9,1.9H6.8c-3.7,0-6.8,3-6.8,6.8v17.4h1.9V32.2
			c0-2.7,2.2-4.8,4.8-4.8h3.1l8.7,12.2c0.2,0.2,0.5,0.4,0.8,0.4h0c0.3,0,0.6-0.1,0.8-0.4l9.2-12.2h2.6c2.7,0,4.8,2.2,4.8,4.8v7.7
			c0,0.5,0.4,1,1,1c0.4,0,0.7-0.2,0.8-0.5l4.6-8.2h5.5l-9.4,17.4h2.2l9.4-17.4h0.4c3.7,0,6.8-3,6.8-6.8C58,24.9,57.6,24.4,57,24.4z
			 M11.6,12.8V9.3l14.9-7c0.4,0.9,0.5,1.9,0.5,2.8v7.7c0,4.3-3.5,7.7-7.7,7.7S11.6,17.1,11.6,12.8L11.6,12.8L11.6,12.8z M19.4,37.3
			l-3-4.2h6.1L19.4,37.3z M24,31.2h-9l-2.8-3.9h0.4c2.1,0,3.9-1.7,3.9-3.9V22c1.9,0.6,3.9,0.6,5.8,0v1.4c0,2.1,1.7,3.9,3.9,3.9h0.8
			L24,31.2z M51.2,30.2h-7.6c0.5-2.2,2.4-3.9,4.7-3.9H56C55.5,28.6,53.5,30.2,51.2,30.2L51.2,30.2z"/>
	</g>
</g>
</svg>
