<?xml version="1.0" encoding="utf-8"?>
<!-- Generator: Adobe Illustrator 24.0.0, SVG Export Plug-In . SVG Version: 6.00 Build 0)  -->
<svg version="1.1" id="Layer_1" xmlns="http://www.w3.org/2000/svg" xmlns:xlink="http://www.w3.org/1999/xlink" x="0px" y="0px"
	 viewBox="0 0 477.5 361.9" style="enable-background:new 0 0 477.5 361.9;" xml:space="preserve">
<style type="text/css">
	.st0{opacity:0.24;fill:#C9A8F4;enable-background:new    ;}
	.st1{opacity:0.24;fill:#353535;enable-background:new    ;}
	.st2{fill:#EC1E24;}
	.st3{opacity:0.57;fill:none;stroke:#BF1E24;stroke-width:1.238;stroke-miterlimit:10;enable-background:new    ;}
	.st4{fill:#E9DB20;}
	.st5{opacity:0.57;fill:none;stroke:#353535;stroke-width:1.238;stroke-miterlimit:10;enable-background:new    ;}
	.st6{fill:url(#Path_17_1_);}
	.st7{opacity:0.63;}
	.st8{fill:none;stroke:#353535;stroke-width:1.032;stroke-linecap:round;stroke-miterlimit:10;}
	.st9{fill:none;stroke:#EA8BEF;stroke-width:1.032;stroke-linecap:round;stroke-miterlimit:10;}
	.st10{fill:none;stroke:#BF1E24;stroke-width:1.032;stroke-linecap:round;stroke-miterlimit:10;}
	.st11{fill:#FFFFFF;}
	.st12{opacity:0.57;fill:#E3DCE5;enable-background:new    ;}
	.st13{opacity:0.65;fill:#CAC2CE;enable-background:new    ;}
	.st14{opacity:0.61;fill:#E3DCE5;enable-background:new    ;}
	.st15{opacity:0.57;fill:#CAC2CE;enable-background:new    ;}
	.st16{fill:url(#Path_52_1_);}
	.st17{fill:#ED4C76;}
	.st18{fill:url(#Path_54_1_);stroke:#04006A;stroke-width:0.413;stroke-miterlimit:10;}
	.st19{fill:#353535;}
	.st20{fill:url(#Path_57_1_);}
	.st21{fill:url(#Path_58_1_);}
	.st22{fill:url(#Path_60_1_);}
	.st23{fill:url(#Path_61_1_);}
	.st24{fill:#CED5E0;stroke:#04006A;stroke-width:0.413;stroke-miterlimit:10;}
	.st25{fill:#BA2744;}
	.st26{fill:url(#Path_66_1_);}
	.st27{fill:url(#Path_67_1_);}
	.st28{fill:url(#Path_68_1_);}
	.st29{fill:url(#Path_71_1_);}
	.st30{fill:none;stroke:#04006A;stroke-width:0.413;stroke-miterlimit:10;}
	.st31{fill:url(#Path_74_1_);}
	.st32{fill:url(#Path_75_1_);}
	.st33{fill:#EBEFF7;}
	.st34{fill:url(#Path_77_1_);}
	.st35{fill:url(#Path_78_1_);}
	.st36{fill:#D8DDE5;}
	.st37{fill:#F0668F;}
	.st38{fill:url(#Path_87_1_);}
	.st39{fill:#F2F2F7;}
	.st40{fill:url(#Path_90_1_);}
	.st41{fill:url(#Path_91_1_);}
	.st42{fill:#848484;}
	.st43{fill:url(#Path_94_1_);}
	.st44{fill:url(#Path_97_1_);}
	.st45{fill:url(#Path_98_1_);}
	.st46{fill:url(#Path_99_1_);}
	.st47{fill:url(#Path_104_1_);}
	.st48{fill:none;}
	.st49{fill:url(#Path_107_1_);}
	.st50{fill:url(#Path_108_1_);}
	.st51{fill:#F28941;}
	.st52{fill:url(#Path_112_1_);}
	.st53{fill:#F26893;}
	.st54{fill:url(#Path_119_1_);}
	.st55{fill:url(#Path_120_1_);}
	.st56{fill:url(#Path_121_1_);}
	.st57{fill:#A02240;}
	.st58{fill:url(#Path_127_1_);}
	.st59{fill:url(#Path_129_1_);}
	.st60{fill:url(#Path_130_1_);}
	.st61{fill:url(#Path_133_1_);}
	.st62{fill:url(#Path_135_1_);}
	.st63{fill:url(#Path_136_1_);}
	.st64{fill:url(#Path_139_1_);}
	.st65{fill:url(#Path_140_1_);}
	.st66{opacity:0.66;fill:#EC1E24;enable-background:new    ;}
	.st67{fill:#804ECE;}
</style>
<g id="OBJECTS" transform="translate(-31.469 -92.751)">
	<g id="Group_31" transform="translate(31.469 92.751)">
		<g id="Group_1" transform="translate(22.094)">
			<path id="Path_1" class="st0" d="M42,321.5c-13.2,0.8-37.8,4.9-36.7,16.3s15.8,8.1,29.9,3.2s32,5.9,34.6-1.6S60.3,320.4,42,321.5
				z"/>
			<path id="Path_2" class="st0" d="M102.1,334c0,0-8.7,2.4,0.5,9s19.1-9,29.7-6.4s28.6,4,23.6-9.7S110.3,325.7,102.1,334z"/>
			<path id="Path_3" class="st0" d="M399.1,325.4c-6-3.9-33.3,3.8-32.8,12.3s21.7,1.9,28.6,9.9S440.8,352.3,399.1,325.4z"/>
			<path id="Path_4" class="st0" d="M167.8,321.8c0,0-27.8,27.6-21.4,36.1s114-12.3,135,0s47.4-5.7,21.9-36.3
				S167.8,321.8,167.8,321.8z"/>
			<path id="Path_5" class="st1" d="M145.8,248.2c-28.3,20.4-75.5,47.9-125.2-15c-46.9-59.4-9.7-190.3,73.4-213.7
				c81.2-22.8,139.7,96.1,169.7,56.8s65.1-105.2,121.9-62.5s121.2,211.2,5.2,269C308.8,323.8,308.6,131,145.8,248.2z"/>
		</g>
		<g id="Group_15" transform="translate(92.729 98.37)">
			<g id="Group_6">
				<g id="Group_2" transform="translate(20.134 20.554)">
					<path id="Path_6" class="st2" d="M79.9,63.4l-1.5,32.9c0,0-6.1-32.3-19.2-32.9S43.2,51.7,44.9,42.3s-0.4-20.6-14.6-25.9
						S17.6,0,9.5,0S-8,19.2,11.4,32.5S14.3,68.6,36.8,79s0.6,36.7,44.4,35.4L79.9,63.4z"/>
					<path id="Path_7" class="st3" d="M9.1,12.1c0,0,3.1,8.3,14.4,14.6S28,51.1,40.7,63.4c12.7,12.3,22.2,20,26.1,39.2"/>
				</g>
				<g id="Group_3" transform="translate(61.827)">
					<path id="Path_8" class="st4" d="M60.1,83.3l-12.3,30.5c0,0,4.8-32.5-7.3-37.4S29.3,60.2,34,51.9s6.4-19.5-5.3-29.3
						S22.2,3,14.5,0.3S-8.3,12.7,5.7,31.6s-9.2,35.1,8.7,52.3s-11.5,34.9,30.3,48L60.1,83.3z"/>
					<path id="Path_9" class="st5" d="M10.2,11.6c0,0,0.2,8.8,8.8,18.5s-3.8,24.5,4.1,40.3S37.5,96.6,34.9,116"/>
				</g>
				<g id="Group_4" transform="translate(0 75.701)">
					<path id="Path_10" class="st4" d="M95.8,24.2L109.7,54c0,0-20.5-25.7-32.3-20.1S57.8,30.9,55,21.8s-9.9-18-25-16.2
						S11.1-2.9,4,0.8S-2.5,26,20.8,28.7S40.2,59.3,64.9,58s17.6,32.2,55.7,10.6L95.8,24.2z"/>
					<path id="Path_11" class="st5" d="M9.3,11.7c0,0,6.6,5.9,19.6,6.2s15.3,19.5,32.2,24.5S90,49.8,102.4,65"/>
				</g>
				<g id="Group_5" transform="translate(6.371 115.578)">
					<path id="Path_12" class="st2" d="M95.8,24.2L109.7,54c0,0-20.5-25.7-32.3-20.1S57.8,30.9,55,21.8s-9.9-18-25-16.2
						S11.2-2.9,4,0.8S-2.5,26,20.8,28.7S40.2,59.3,64.9,58s17.6,32.2,55.7,10.6L95.8,24.2z"/>
					<path id="Path_13" class="st3" d="M9.3,11.7c0,0,6.6,5.9,19.6,6.2s15.3,19.5,32.2,24.5S90,49.8,102.4,65"/>
				</g>
			</g>
			<g id="Group_8" transform="translate(31.559 117.533)">
				<path id="Path_14" class="st4" d="M55.1,111.4c0,0-49.1-0.7-52.4-9.2S38.1,93.7,55.1,111.4z"/>
				<path id="Path_15" class="st4" d="M55.1,111.4c0,0-11.1-26.2-36-34.7s-24.9,14.4-3.3,17S55.1,111.4,55.1,111.4z"/>
				<path id="Path_16" class="st4" d="M60.4,104.8c0,0-16.4-38-27.5-51.8S13.2,34.1,6.7,38s-5.2,17,9.2,28.2s28.8,27.5,39.3,45.2
					L60.4,104.8z"/>
				
					<linearGradient id="Path_17_1_" gradientUnits="userSpaceOnUse" x1="-37.0762" y1="114.7992" x2="-37.4282" y2="115.1772" gradientTransform="matrix(35.1772 0 0 -111.3988 1355.3979 12852.668)">
					<stop  offset="0" style="stop-color:#9F42DD"/>
					<stop  offset="1" style="stop-color:#E774E0"/>
				</linearGradient>
				<path id="Path_17" class="st6" d="M55.1,111.4c0,0-7.2-38-22.9-70.7C17.5,9.9,28.2-5.9,39.8,2c13.9,9.4,22.1,50.3,20.1,103.9
					L55.1,111.4z"/>
				<g id="Group_7" transform="translate(9.605 11.466)" class="st7">
					<path id="Path_18" class="st8" d="M2,90.4c13.3,0.2,26.5,2.8,39,7.7"/>
					<path id="Path_19" class="st8" d="M0,69.5c0,0,25.3,4.2,42.5,28.7"/>
					<path id="Path_20" class="st8" d="M2,37.4c0,0,26.2,13.8,43.3,58.3"/>
					<path id="Path_21" class="st9" d="M25.6,0C35.1,23.3,43,48.4,49.5,80.3l-0.3,0.3"/>
				</g>
			</g>
			<g id="Group_13" transform="translate(187.116)">
				<g id="Group_9" transform="translate(25.715 20.554)">
					<path id="Path_22" class="st2" d="M1.3,63.4l1.5,32.9c0,0,6.1-32.3,19.2-32.9S38,51.7,36.3,42.3s0.4-20.6,14.6-25.9
						S63.6,0,71.7,0s17.5,19.2-1.9,32.5S66.9,68.6,44.4,79S43.8,115.7,0,114.3L1.3,63.4z"/>
					<path id="Path_23" class="st10" d="M72.1,12.1c0,0-3.1,8.3-14.4,14.6s-4.4,24.4-17.1,36.7c-12.7,12.3-22.2,20-26.1,39.2"/>
				</g>
				<g id="Group_10" transform="translate(5.094)">
					<path id="Path_24" class="st2" d="M0,83.3l12.3,30.5c0,0-4.8-32.5,7.3-37.4s11.2-16.3,6.5-24.6s-6.4-19.5,5.3-29.3
						S38,3,45.6,0.3s22.8,12.4,8.9,31.3s9.2,35.1-8.7,52.3s11.5,34.9-30.3,48L0,83.3z"/>
					<path id="Path_25" class="st10" d="M49.9,11.6c0,0-0.2,8.8-8.8,18.5S45,54.6,37,70.4S22.6,96.6,25.3,116"/>
				</g>
				<g id="Group_11" transform="translate(6.372 75.701)">
					<path id="Path_26" class="st2" d="M24.9,24.2L11,54c0,0,20.5-25.7,32.3-20.1s19.6-2.9,22.4-12.1s9.9-18,25-16.2
						s18.8-8.5,26-4.8s6.5,25.1-16.8,27.8S80.5,59.3,55.7,58S38.1,90.2,0,68.6L24.9,24.2z"/>
					<path id="Path_27" class="st10" d="M111.4,11.7c0,0-6.6,5.9-19.6,6.2S76.5,37.5,59.6,42.4S30.7,49.8,18.3,65"/>
				</g>
				<g id="Group_12" transform="translate(0 115.578)">
					<path id="Path_28" class="st2" d="M24.9,24.2L11,54c0,0,20.5-25.7,32.3-20.1s19.6-2.9,22.4-12.1s9.9-18,25-16.2
						s18.8-8.5,26-4.8s6.5,25.1-16.8,27.8S80.5,59.3,55.7,58S38.1,90.2,0,68.6L24.9,24.2z"/>
					<path id="Path_29" class="st10" d="M111.4,11.7c0,0-6.6,5.9-19.6,6.2S76.5,37.5,59.6,42.4S30.7,49.8,18.3,65"/>
				</g>
			</g>
			<path id="Path_30" class="st2" d="M227.5,228.9c0,0,49.1-0.7,52.4-9.2S244.5,211.2,227.5,228.9z"/>
			<path id="Path_31" class="st2" d="M227.5,228.9c0,0,11.1-26.2,36-34.7s24.9,14.4,3.3,17S227.5,228.9,227.5,228.9z"/>
			<path id="Path_32" class="st2" d="M222.2,222.4c0,0,16.4-38,27.5-51.8c11.1-13.8,19.7-19,26.2-15.1s5.2,17-9.2,28.2
				c-14.4,11.1-28.8,27.5-39.3,45.2L222.2,222.4z"/>
			<path id="Path_33" class="st4" d="M227.5,228.9c0,0,7.2-38,22.9-70.7c14.7-30.7,4.1-46.5-7.6-38.6
				c-13.9,9.4-22.1,50.3-20.1,103.9L227.5,228.9z"/>
			<g id="Group_14" transform="translate(223.527 128.999)" class="st7">
				<path id="Path_34" class="st10" d="M47.5,90.4c-13.3,0.2-26.5,2.8-39,7.7"/>
				<path id="Path_35" class="st10" d="M49.5,69.5c0,0-25.3,4.2-42.5,28.7"/>
				<path id="Path_36" class="st10" d="M47.5,37.4c0,0-26.2,13.8-43.3,58.3"/>
				<path id="Path_37" class="st8" d="M23.9,0C14.4,23.3,6.5,48.4,0,80.3l0.3,0.3"/>
			</g>
		</g>
		<g id="Group_22" transform="translate(169.586 28.428)">
			<path id="Rectangle_2" class="st2" d="M15.6,0h129.3c8.6,0,15.6,7,15.6,15.6v270.1c0,8.6-7,15.6-15.6,15.6H15.6
				c-8.6,0-15.6-7-15.6-15.6V15.6C0,7,7,0,15.6,0z"/>
			<path id="Path_38" class="st11" d="M154.5,21.2v258.8c0,8.3-6.7,15-15,15H21.1c-8.3,0-15-6.7-15-15V21.2c0-8.3,6.7-15,15-15h32
				c1.2,0,2.3,0.7,2.8,1.9l2.3,5.6c0.4,1,1.4,1.7,2.6,1.7h44.4c1.1,0,2.1-0.7,2.5-1.7l2.1-4.9c0.7-1.6,2.3-2.6,4-2.6h25.6
				C147.7,6.2,154.4,12.9,154.5,21.2z"/>
			<path id="Union_1" class="st4" d="M6.2,39.5v-13H6.1V21c0-8.3,6.7-15,15-15h32c1.2,0,2.3,0.7,2.8,1.9l2.3,5.6
				c0.4,1,1.4,1.7,2.6,1.7h44.4c1.1,0,2.1-0.7,2.5-1.7l2.1-4.9c0.7-1.6,2.3-2.6,4-2.6h25.6c8.3,0,15,6.7,15,15v4.5h0v14L6.2,39.5z"
				/>
			<g id="Group_16" transform="translate(54.283 90.388)">
				<path id="Path_40" class="st12" d="M51.9,25.9c0,14.3-11.6,25.9-25.9,25.9C11.6,51.9,0,40.3,0,25.9S11.6,0,25.9,0
					c14.3,0,25.9,11.5,25.9,25.8C51.9,25.9,51.9,25.9,51.9,25.9z"/>
				<path id="Path_41" class="st13" d="M42.7,45.8c-9.6,8.1-23.6,8.2-33.3,0.2c0.4-4.5,1.7-8.9,3.8-12.9c1.3-2.4,4.2-3.3,6.6-2.2
					c3.9,1.8,8.5,1.8,12.4-0.1c2.4-1.2,5.4-0.2,6.7,2.2C41,36.9,42.3,41.3,42.7,45.8z"/>
				<path id="Path_42" class="st13" d="M36.7,17.6c0,6-4.8,10.8-10.8,10.8c-6,0-10.8-4.8-10.8-10.8c0-6,4.8-10.8,10.8-10.8
					C31.9,6.8,36.7,11.6,36.7,17.6L36.7,17.6z"/>
			</g>
			<g id="Group_20" transform="translate(22.401 210.128)">
				<g id="Group_17" transform="translate(84.417)">
					<circle id="Ellipse_1" class="st2" cx="15.7" cy="15.7" r="15.7"/>
					<path id="Path_43" class="st11" d="M18.5,9.3c0,0,1.4-4.3,2.6-4.5s5.5,2.8,4.8,7.6S18.6,24,13.5,24.5s-8.5-2.8-8.1-3.8
						s2.6-3.8,4.4-2.8s3.5,2.9,5.6,1.2s5.7-4.7,5.9-6.3S18.5,11,18.5,9.3z"/>
				</g>
				<g id="Group_18" transform="translate(0 0)">
					<circle id="Ellipse_2" class="st4" cx="15.7" cy="15.7" r="15.7"/>
					<path id="Path_44" class="st11" d="M18.5,9.3c0,0,1.4-4.3,2.6-4.5s5.5,2.8,4.8,7.6S18.6,24,13.5,24.5s-8.5-2.8-8.1-3.8
						s2.6-3.8,4.4-2.8s3.4,2.9,5.6,1.2s5.7-4.7,5.9-6.3S18.5,11,18.5,9.3z"/>
				</g>
				<g id="Group_19" transform="translate(38.516 13.271)">
					<path id="Path_45" class="st14" d="M4.8,2.4c0,1.3-1.1,2.4-2.4,2.4S0,3.7,0,2.4C0,1.1,1.1,0,2.4,0l0,0C3.7,0,4.8,1.1,4.8,2.4z"
						/>
					<path id="Path_46" class="st14" d="M15.4,2.5c0,1.3-1.1,2.4-2.4,2.4s-2.4-1.1-2.4-2.4c0-1.3,1.1-2.4,2.4-2.4l0,0
						C14.3,0.1,15.4,1.2,15.4,2.5z"/>
					<path id="Path_47" class="st14" d="M25.9,2.4c0,1.3-1.1,2.4-2.4,2.4s-2.4-1.1-2.4-2.4c0-1.3,1.1-2.4,2.4-2.4l0,0
						C24.9,0,25.9,1.1,25.9,2.4z"/>
					<path id="Path_48" class="st14" d="M36.5,2.5c0,1.3-1.1,2.4-2.4,2.4s-2.4-1.1-2.4-2.4s1.1-2.4,2.4-2.4c0,0,0,0,0,0
						C35.4,0.1,36.5,1.2,36.5,2.5z"/>
				</g>
			</g>
			<g id="Group_21" transform="translate(36.67 152.454)">
				<path id="Path_49" class="st15" d="M61.8,11.4H21.9c-3.1,0-5.7-2.5-5.7-5.7l0,0c0-3.1,2.5-5.7,5.7-5.7h39.9
					c3.1,0,5.7,2.5,5.7,5.7l0,0C67.5,8.8,64.9,11.4,61.8,11.4z"/>
				<path id="Rectangle_3" class="st14" d="M8.9,28.3h11.9c0.8,0,1.5,0.7,1.5,1.5v0.6c0,0.8-0.7,1.5-1.5,1.5H8.9
					c-0.8,0-1.5-0.7-1.5-1.5v-0.6C7.4,29,8.1,28.3,8.9,28.3z"/>
				<path id="Rectangle_4" class="st14" d="M29.5,28.3h11.9c0.8,0,1.5,0.7,1.5,1.5v0.6c0,0.8-0.7,1.5-1.5,1.5H29.5
					c-0.8,0-1.5-0.7-1.5-1.5v-0.6C27.9,29,28.6,28.3,29.5,28.3z"/>
				<path id="Rectangle_5" class="st14" d="M49.8,28.3h11.9c0.8,0,1.5,0.7,1.5,1.5v0.6c0,0.8-0.7,1.5-1.5,1.5H49.8
					c-0.8,0-1.5-0.7-1.5-1.5v-0.6C48.3,29,49,28.3,49.8,28.3z"/>
				<path id="Rectangle_6" class="st14" d="M70.4,28.3h11.9c0.8,0,1.5,0.7,1.5,1.5v0.6c0,0.8-0.7,1.5-1.5,1.5H70.4
					c-0.8,0-1.5-0.7-1.5-1.5v-0.6C68.9,29,69.5,28.3,70.4,28.3z"/>
				<path id="Path_50" class="st14" d="M84.3,21.2H2.9c-1.6,0-2.9-1.3-2.9-2.9l0,0c0-1.6,1.3-2.9,2.9-2.9h81.4
					c1.6,0,2.9,1.3,2.9,2.9l0,0l0,0C87.2,19.9,85.9,21.2,84.3,21.2z"/>
			</g>
			<path id="Path_51" class="st14" d="M104.9,278.4H52c-2.5,0-4.5-2-4.5-4.5l0,0c0-2.5,2-4.5,4.5-4.5h52.9c2.5,0,4.5,2,4.5,4.5l0,0
				C109.4,276.4,107.4,278.4,104.9,278.4C104.9,278.4,104.9,278.4,104.9,278.4z"/>
		</g>
		<g id="Group_23" transform="translate(360.926 113.265)">
			
				<linearGradient id="Path_52_1_" gradientUnits="userSpaceOnUse" x1="-279.8335" y1="217.5951" x2="-280.4695" y2="218.8401" gradientTransform="matrix(9.9305 0 0 -23.8598 2799.0068 5245.3867)">
				<stop  offset="0" style="stop-color:#E85B7D"/>
				<stop  offset="1" style="stop-color:#FF78AF"/>
			</linearGradient>
			<path id="Path_52" class="st16" d="M18.6,36.6l0.9,5.6h-0.5l-3.4,0.7l-1.2,0.2c-0.6-3.9-1.6-5.4-3.3-9.2c-0.6-1.6-1.1-3.3-1.3-5
				c-0.4-2.9-0.5-5.7-0.3-5.7c0.3-0.2,1.7,6.9,1.7,6.9s-1.1-9.5-0.5-9.5c0.6,0,1.8,8.2,1.9,8.7c0-0.5-0.9-9.8-0.3-10s2.6,9.7,2.6,10
				c0-0.3-0.9-8.5-0.5-8.6c0.5-0.1,1,3.4,1.6,6.1c0.2,1,0.5,1.9,0.8,2.8c1.6-2.2,0.6-5.8,1.1-5.8s1.4,3.3,1.4,5.1c0,0.2,0,0.4,0,0.7
				l0,0c0,0.1,0,0.2,0,0.3l0,0c0,0.4-0.1,0.8-0.1,1.2C19.1,33.5,18.6,36.6,18.6,36.6z"/>
			<path id="Path_53" class="st17" d="M15.1,38.8c0,1.4,0.2,2.7,0.6,4l-1.2,0.2c-0.6-3.9-1.6-5.4-3.3-9.2c-0.6-1.6-1.1-3.3-1.3-5
				c0.5,2,1.2,3.8,2.3,5.6C13.9,36.5,15.1,36.8,15.1,38.8z"/>
			
				<linearGradient id="Path_54_1_" gradientUnits="userSpaceOnUse" x1="-4191.7407" y1="330.7902" x2="-4190.7319" y2="330.7902" gradientTransform="matrix(2.270508e-02 0 0 -0.273 114.6864 120.0796)">
				<stop  offset="0" style="stop-color:#F99393"/>
				<stop  offset="1" style="stop-color:#FFB0B4"/>
			</linearGradient>
			<path id="Path_54" class="st18" d="M19.5,29.6c0,0.1,0,0.2,0,0.3C19.5,29.8,19.5,29.7,19.5,29.6z"/>
			<path id="Path_55" class="st17" d="M19.6,42.2h-0.5l-3.4,0.7l3.3-0.8c0,0-1.7-4.8-1.4-6.2c0.3-1.1,1.4-2.9,1.8-4.7
				c-0.3,2.3-0.8,5.4-0.8,5.4L19.6,42.2z"/>
			<path id="Path_56" class="st19" d="M67,207.8l0.5,15.1h-0.7l-0.8-7.5c0,0,0.4,5.7-3.9,8.7c-5.5,3.9-7.3-0.4-5.8-2.8
				c2.5-3.9,3.7-7.5,4.4-13.9C62.6,206.1,65.2,206.3,67,207.8z"/>
			
				<linearGradient id="Path_57_1_" gradientUnits="userSpaceOnUse" x1="483.8039" y1="220.0692" x2="484.8038" y2="220.0692" gradientTransform="matrix(5.8349 0 0 -10.9379 1734.8428 2621.9336)">
				<stop  offset="0" style="stop-color:#E85B7D"/>
				<stop  offset="1" style="stop-color:#FF78AF"/>
			</linearGradient>
			<path id="Path_57" class="st20" d="M61.1,209.4c1.3,0.4,2.6,0.4,3.9,0.2c0,0-0.4,7.8-3.4,10c-3.3,2.3-2.4-1.1-1.9-2.3
				C61,214.4,61.1,209.4,61.1,209.4z"/>
			
				<linearGradient id="Path_58_1_" gradientUnits="userSpaceOnUse" x1="-125.2385" y1="355.4673" x2="-126.0415" y2="354.7373" gradientTransform="matrix(16.2927 0 0 -80.687 4570.0757 17727.4043)">
				<stop  offset="0" style="stop-color:#E85B7D"/>
				<stop  offset="1" style="stop-color:#FF78AF"/>
			</linearGradient>
			<path id="Path_58" class="st21" d="M50.7,131.6c0,0,2.5,15.6,3.3,22.5s4.7,44.6,6.7,53.8c0.5,0.3,1.1,0.6,1.7,0.7
				c1.5,0.4,3.2,0.1,4.5-0.7c0,0-1.2-33.7-0.6-44.1s-0.8-24.2,0.6-32.1c1.1-6.1-8.9-2.9-13.7-1C51.7,131.1,50.7,131.6,50.7,131.6z"
				/>
			<path id="Path_59" class="st19" d="M45,207.9l0.5,15.1h-0.7l-0.8-7.5c0,0,0.4,5.7-3.9,8.7c-5.5,3.9-7.3-0.4-5.8-2.8
				c2.5-3.9,3.7-7.5,4.4-13.9C40.6,206.2,43.2,206.4,45,207.9z"/>
			
				<linearGradient id="Path_60_1_" gradientUnits="userSpaceOnUse" x1="491.3449" y1="220.0697" x2="492.3448" y2="220.0697" gradientTransform="matrix(5.8349 0 0 -10.9359 1712.8558 2621.574)">
				<stop  offset="0" style="stop-color:#E85B7D"/>
				<stop  offset="1" style="stop-color:#FF78AF"/>
			</linearGradient>
			<path id="Path_60" class="st22" d="M39.1,209.4c1.3,0.4,2.6,0.4,3.9,0.2c0,0-0.4,7.8-3.4,10c-3.3,2.3-2.4-1.1-1.9-2.3
				C39,214.4,39.1,209.4,39.1,209.4z"/>
			
				<linearGradient id="Path_61_1_" gradientUnits="userSpaceOnUse" x1="-276.4032" y1="218.045" x2="-277.2032" y2="217.318" gradientTransform="matrix(16.2964 0 0 -80.6913 4549.0991 17728.4141)">
				<stop  offset="0" style="stop-color:#E85B7D"/>
				<stop  offset="1" style="stop-color:#FF78AF"/>
			</linearGradient>
			<path id="Path_61" class="st23" d="M44.3,138c-0.3,7.8,0.4,17.7,0,25.7c-0.6,10.4,0.6,44.1,0.6,44.1c-0.9,0.6-2,0.9-3.1,0.9
				c-0.5,0-0.9-0.1-1.4-0.2c-0.6-0.1-1.2-0.4-1.7-0.7c-2-9.2-5.9-46.9-6.7-53.8s-3.3-22.5-3.3-22.5s1-0.5,2.5-1
				c4.8-1.9,14.8-5,13.7,1C44.6,133.7,44.4,135.9,44.3,138z"/>
			<path id="Path_62" class="st17" d="M41.8,208.8c1.4-5,1.5-13.3,0-21.3c-1.9-10.4-0.3-16.2,0-25.4s-2.2-21.8-2.2-21.8l4.7-2.2
				c-0.3,7.8,0.4,17.7,0,25.7c-0.6,10.4,0.6,44.1,0.6,44.1C44,208.5,42.9,208.8,41.8,208.8z"/>
			<path id="Path_63" class="st17" d="M63.8,208.8c1.4-5,1.5-13.3,0-21.3c-1.9-10.4-0.3-16.2,0-25.4s-2.2-21.8-2.2-21.8l4.7-2.2
				c-0.3,7.8,0.4,17.7,0,25.7c-0.6,10.4,0.6,44.1,0.6,44.1C65.9,208.5,64.9,208.8,63.8,208.8z"/>
			<path id="Path_64" class="st24" d="M0,64.1"/>
			<path id="Path_65" class="st25" d="M35.6,39.2c0,0,1.1-4.9-0.6-16.8c-1.7-11.9-0.4-19.6,4.3-17.5c0,0,0-3.6,5.5-4.7
				s11.6,3,13,10.8s2.3,23.5,4.8,28.2S35.6,39.2,35.6,39.2z"/>
			
				<linearGradient id="Path_66_1_" gradientUnits="userSpaceOnUse" x1="-273.2567" y1="218.3462" x2="-273.6977" y2="217.4072" gradientTransform="matrix(41.9256 0 0 -54.1732 11517.1035 11915.2158)">
				<stop  offset="0" style="stop-color:#BF1E24"/>
				<stop  offset="1" style="stop-color:#EC1E24"/>
			</linearGradient>
			<path id="Path_66" class="st26" d="M69.3,117.5c-0.2,10.7-0.8,21.7-0.8,21.7c-22,7.8-39.9,0.9-39.9,0.9
				c-1.4-11.1-1.8-27.2,0.9-38.3c1.7-7,3.1-11.8,3.1-11.8l35.4-1.2C69.4,95,69.5,107,69.3,117.5z"/>
			
				<linearGradient id="Path_67_1_" gradientUnits="userSpaceOnUse" x1="-273.2881" y1="220.0672" x2="-273.7671" y2="217.5022" gradientTransform="matrix(39.9121 0 0 -28.7 10971.5977 6368.8223)">
				<stop  offset="0" style="stop-color:#BF1E24"/>
				<stop  offset="1" style="stop-color:#BF1E24;stop-opacity:0"/>
			</linearGradient>
			<path id="Path_67" class="st27" d="M69.3,117.5c-5.2-2.7-10-6-14.5-9.8c-10.9-9.1-21.6-7-25.4-5.8c1.7-7,3.1-11.8,3.1-11.8
				l35.4-1.2C69.4,95,69.5,107,69.3,117.5z"/>
			
				<linearGradient id="Path_68_1_" gradientUnits="userSpaceOnUse" x1="-279.9226" y1="219.8967" x2="-280.8016" y2="218.8927" gradientTransform="matrix(9.5767 0 0 -17.934 2752.9436 4028.5881)">
				<stop  offset="0" style="stop-color:#E85B7D"/>
				<stop  offset="1" style="stop-color:#FF78AF"/>
			</linearGradient>
			<path id="Path_68" class="st28" d="M68.7,95.7c0,1.3-0.2,2.5-0.6,3.7c-0.5,1.5-1.8,2.7-2.8,4.1c-0.3,0.5-0.5,1.1-0.6,1.6
				c0,0.3,0,0.6,0,0.9c0,0.9,1.6,4.1,0.8,3.7c-0.5-0.2-1.5-2.3-1.9-3.6c-0.2-1.5-0.2-2.9,0.2-4.4c-0.7,1.3-0.9,2.8-0.8,4.2
				c0.6,2.7,1.6,4.7,1.1,4.7s-1.3-1.7-2.2-3.9c-0.3-1-0.4-2-0.3-3c0-0.9,0-1.8,0.2-2.7c-0.4,1.4-0.6,2.9-0.6,4.4
				c0,1.1,0.5,4.4,0.2,4.2c-0.4-0.2-1.1-2.7-1.2-3.7c-0.3-2-0.2-5.1,0.2-5.8c0.6-1.1,5-7.5,5-7.5l3.1,1.5l1.2,0.6L68.7,95.7z"/>
			<path id="Path_69" class="st17" d="M68.7,95.7c0,1.3-0.2,2.5-0.6,3.7c-0.5,1.5-1.8,2.7-2.8,4.1c-0.3,0.5-0.5,1.1-0.6,1.6
				c0,0-0.5-1.6,1.2-3.8s1.1-4.5,1.4-5.5c0.2-0.6,0.5-1.1,0.9-1.6l1.2,0.6L68.7,95.7z"/>
			<path id="Path_70" class="st4" d="M82.6,64c-0.2-1.7-17-27-18.2-27.4S50.6,35.2,47.8,36L44.3,36c0,0-10.1,1.2-12,3.2
				c-1.3,1.4-4.9,12.2-7,18.7c-0.8,2.4-1.3,4.1-1.5,4.7c0,0.1-0.1,0.2-0.1,0.2l-0.7-4.1l-2.9-17.4l-7.3,1.4c0,0,1.9,17.8,2.7,24.5
				S18,80.4,20,81.8s7.5,0.5,8.7-1.6c1.8-3,3.2-6.1,4.3-9.4c0.8-2.3,1.5-4.5,1.9-6c0.1-0.3,0.1-0.5,0.2-0.8c0.1-0.3,0,0.8,0,2.2
				c0,0.1,0,0.2,0,0.4C35,75.1,33.9,83.5,32,91.8c9.9,4.2,21.1,4.2,31,0c0.6-0.3,1.2-0.5,1.8-0.8c0.1,0,0.2-0.1,0.2-0.1l-0.8,1.4
				l0,0l5.6,2.8c0,0,6.9-14.2,9.4-20S82.7,65.7,82.6,64z M71.5,65c-0.1,0.7-1.7,8.1-2.8,13.1c-0.3,1.6-0.6,2.9-0.8,3.7
				c-0.1,0.5-0.2,0.8-0.2,0.8s0,0,0-0.1c-0.2-1.4-2.3-14.8-2.3-17c0.2-2.6,0.5-5.2,0.9-7.8c0,0,0,0,0.1,0.1
				C67.2,58.7,71.6,64,71.5,65L71.5,65z"/>
			
				<linearGradient id="Path_71_1_" gradientUnits="userSpaceOnUse" x1="-290.0597" y1="217.7994" x2="-291.6266" y2="219.7774" gradientTransform="matrix(4.5762 0 0 -22.072 1365.0588 4885.5908)">
				<stop  offset="0" style="stop-color:#FF911E"/>
				<stop  offset="1" style="stop-color:#FE931E;stop-opacity:0"/>
			</linearGradient>
			<path id="Path_71" class="st29" d="M34.1,57.9c0.2,1.5,0.6,4.8,0.9,6.8c-0.4,1.6-1.1,3.7-1.9,6c-0.7-4.1-1.9-12.3-1.2-13.6
				c0.9-1.9,4.4-8.4,4.4-8.4S33.8,55.8,34.1,57.9z"/>
			<path id="Path_72" class="st30" d="M35.2,66.3c0,0.2,0,0.2,0,0.2l0,0.1C35.2,66.5,35.2,66.4,35.2,66.3z"/>
			<path id="Path_73" class="st30" d="M59.3,64"/>
			
				<linearGradient id="Path_74_1_" gradientUnits="userSpaceOnUse" x1="-283.4361" y1="217.1768" x2="-285.6121" y2="218.8028" gradientTransform="matrix(6.8746 0 0 -40.855 2019.256 8978.1182)">
				<stop  offset="0" style="stop-color:#FF911E"/>
				<stop  offset="1" style="stop-color:#FE931E;stop-opacity:0"/>
			</linearGradient>
			<path id="Path_74" class="st31" d="M65.4,65.4c0,2.2,2.1,15.6,2.3,17c-0.8,2.9-1.8,5.7-2.9,8.5c-0.6,0.3-2.9,1.2-3.5,1.4
				c0.3-4.5,2.3-9.2,0.8-18.4c-2.7-15.9-0.3-22.5-0.3-22.5l4.6,6.2c-0.1-0.1-0.1-0.1-0.1-0.1C65.9,60.2,65.6,62.8,65.4,65.4z"/>
			
				<linearGradient id="Path_75_1_" gradientUnits="userSpaceOnUse" x1="-378.8971" y1="225.6498" x2="-377.8971" y2="225.6498" gradientTransform="matrix(0.832 0 0 -3.684 383.1786 911.2007)">
				<stop  offset="0" style="stop-color:#FF911E"/>
				<stop  offset="1" style="stop-color:#FE931E;stop-opacity:0"/>
			</linearGradient>
			<path id="Path_75" class="st32" d="M68.8,78.6c-0.3,1.1-0.6,2.2-0.8,3.2c0.2-0.8,0.5-2.1,0.8-3.7L68.8,78.6z"/>
			<path id="Path_76" class="st33" d="M54,37.1c0,0-1,4.1-2.3,9.1c-2,7.6-4.5,17.2-4.9,16.9c-0.2-0.2-0.6-3.3-1-7.3
				c-0.8-7.7-1.8-18.7-1.8-18.7L54,37.1z"/>
			
				<linearGradient id="Path_77_1_" gradientUnits="userSpaceOnUse" x1="-314.6819" y1="219.1648" x2="-311.2899" y2="219.1648" gradientTransform="matrix(2.13 0 0 -16.064 692.0367 3586.6401)">
				<stop  offset="0" style="stop-color:#FF911E"/>
				<stop  offset="1" style="stop-color:#FE931E;stop-opacity:0"/>
			</linearGradient>
			<path id="Path_77" class="st34" d="M26,74l-2.1-11.4c0.2-0.5,0.7-2.3,1.5-4.7L26,74z"/>
			
				<linearGradient id="Path_78_1_" gradientUnits="userSpaceOnUse" x1="-275.8771" y1="217.3271" x2="-276.5461" y2="218.3901" gradientTransform="matrix(17.4582 0 0 -31.4644 4873.2798 6889.6475)">
				<stop  offset="0" style="stop-color:#E85B7D"/>
				<stop  offset="1" style="stop-color:#FF78AF"/>
			</linearGradient>
			<path id="Path_78" class="st35" d="M54,37.1c0,0-4.4,4.8-10,0c0.4-1.3,0.6-2.6,0.6-3.9c0-0.7,0-1.5,0-2.2
				c-0.4,0.3-0.8,0.4-1.3,0.5c-0.4,0.1-0.9,0-1.3-0.1c-1.4-0.5-4.8-5.5-5.1-16.1c0,0,2.3-1.2,3.9-5.2c0.3-0.8,0.5-1.6,0.7-2.4
				c1.1,3.4,3.7,6.1,7,7.5l0,0.2c0.2,0.8,0.9,4.7,2.5,6.6c0,0,0.2-6.6,2.2-6.1s0.8,5.7,0.6,6.2c-0.3,0.8-1.1,0.3-1.1,0.3
				S52.6,32.7,54,37.1z"/>
			<path id="Path_79" class="st17" d="M48.7,28.3c-0.7,2.1-2.1,3.8-4,4.9c0-0.7,0-1.5,0-2.2c-0.4,0.3-0.8,0.4-1.3,0.5l0,0
				C45.4,30.7,47.2,29.7,48.7,28.3z"/>
			<path id="Path_80" class="st17" d="M48.6,15.4c-3.6-0.2-6.4-3.4-7.8-5.3c0.3-0.8,0.5-1.6,0.7-2.4c1.1,3.4,3.7,6.1,7,7.5
				L48.6,15.4z"/>
			<path id="Path_81" class="st36" d="M51.7,46.2c-2,7.6-4.5,17.2-4.9,16.9c-0.2-0.2-0.6-3.3-1-7.3L51.7,46.2z"/>
		</g>
		<g id="Group_24" transform="translate(32.634 120.2)">
			<path id="Path_82" class="st33" d="M23.8,37.3l6.8-6.5l13.7,6.5l-2.4,65.4H30.5L23.8,37.3z"/>
			<path id="Path_83" class="st19" d="M15.2,210.9c-0.9,0.4-1.8,0.7-2.8,0.8L1.3,209c3.6-1.1,6.6-2.9,7.5-4.3
				c0.5-1.3,0.8-2.7,0.9-4.1c0.1-1.5,0.2-2.9,0.2-2.9l6-0.9c0,0,0,1.6,0,3.8C15.9,204.6,15.8,210.5,15.2,210.9z"/>
			<path id="Path_84" class="st37" d="M15.9,200.5c-2.1,0.3-4.2,0.3-6.2,0c0.1-1.5,0.2-2.9,0.2-2.9l6-0.9
				C15.8,196.7,15.9,198.4,15.9,200.5z"/>
			<path id="Path_85" class="st19" d="M55,211.2c0,0-8.1,2.7-9.9,2.3s-0.6-4.6-0.3-7c0.1-1.9,0.1-3.8-0.1-5.6
				c-0.2-2.2-0.3-4.1-0.3-4.1h6.2c0,0,0.1,1.9,0.2,3.9c0.1,1.7,0.2,3.4,0.4,4C51.4,206.2,55,211.2,55,211.2z"/>
			<path id="Path_86" class="st37" d="M50.7,200.7c-1.6,0.1-3.7,0.2-6,0.2c-0.2-2.2-0.3-4.1-0.3-4.1h6.2
				C50.5,196.8,50.6,198.7,50.7,200.7z"/>
			
				<linearGradient id="Path_87_1_" gradientUnits="userSpaceOnUse" x1="54.99" y1="210.9437" x2="54.838" y2="210.2727" gradientTransform="matrix(43.648 0 0 -101.4 -2362.4888 21502.9746)">
				<stop  offset="0" style="stop-color:#BF1E24"/>
				<stop  offset="1" style="stop-color:#EC1E24"/>
			</linearGradient>
			<path id="Path_87" class="st38" d="M52.4,97.5v52.8c0,4.2-0.9,48-0.9,48H44c0,0-4.5-39.4-4.6-46.3s-3.2-37.3-3.2-37.3l-0.1,0.2
				l-9.7,32.8c-1.4,5.3-2.4,10.6-3.2,16c-1.3,9.7-7,34.6-7,34.6H8.8l3.3-48.6l5.2-52.8c9.7,1.2,19.5,1.6,29.2,1
				C48.5,97.8,50.5,97.6,52.4,97.5z"/>
			<path id="Path_88" class="st39" d="M12.5,211.8c0,0-3.7-5-8.8-3.6s-3.9,3.1-3,3.6C4.6,212.8,8.7,212.8,12.5,211.8z"/>
			<path id="Path_89" class="st39" d="M54.7,213.1c-1.2,0.2-10.3,1.3-10.5,0c-0.2-1.8,1.1-3.4,2.8-3.6c2.6-0.4,7.7,1.2,8.4,2
				S55.4,213,54.7,213.1z"/>
			
				<linearGradient id="Path_90_1_" gradientUnits="userSpaceOnUse" x1="41.2761" y1="210.6076" x2="42.2761" y2="210.6076" gradientTransform="matrix(5.898 0 0 -100.795 -196.9228 21376.043)">
				<stop  offset="0" style="stop-color:#EC1E24"/>
				<stop  offset="1" style="stop-color:#EC1E24;stop-opacity:0"/>
			</linearGradient>
			<path id="Path_90" class="st40" d="M52.4,97.5v52.8c0,4.2-0.9,48-0.9,48h-2c0.6-8.2,0.5-16.4-0.1-24.6c-1.2-13.8-1.9-18.9,0-35.2
				c1.6-13.1-1.6-33-2.9-40.5C48.5,97.8,50.5,97.6,52.4,97.5z"/>
			
				<linearGradient id="Path_91_1_" gradientUnits="userSpaceOnUse" x1="53.0633" y1="211.2562" x2="52.6813" y2="209.9462" gradientTransform="matrix(22.25 0 0 -93.298 -1151.2375 19803.1738)">
				<stop  offset="0" style="stop-color:#EC1E24"/>
				<stop  offset="1" style="stop-color:#EC1E24;stop-opacity:0"/>
			</linearGradient>
			<path id="Path_91" class="st41" d="M36.2,114.8l-9.7,32.8c-1.4,5.3-2.4,10.6-3.2,16c-1.3,9.7-7,34.6-7,34.6h-2.4
				c2.2-8.1,3.9-16.3,4.9-24.6c1.5-10.3-0.5-11,2.6-26.1c1.5-7.4,6.6-14.2,8.1-22.9c1.1-6.7,2.8-13.3,5.1-19.6L36.2,114.8z"/>
			<path id="Path_92" class="st19" d="M65.3,117.4c0,0,1,9.7,0.8,10.3s-8.8,3.6-9.9,0.8c-1.5-4,0-26.2,0-26.2s-0.2-7.6,1.5-7.4
				S65.3,117.4,65.3,117.4z"/>
			<path id="Path_93" class="st42" d="M57.4,109.3c0,0-0.9-10.5,0-11.8s2.1-1.2,3.9,6.9s2.1,14.4,3.3,15c1,0.4,2.1,0.7,3.1,0.8
				c0,0-7.2-28.6-9.1-28.6s-4.3,2.3-3.9,17.2C54.7,108.7,55.1,114.3,57.4,109.3z"/>
			
				<linearGradient id="Path_94_1_" gradientUnits="userSpaceOnUse" x1="49.0879" y1="211.9322" x2="49.1249" y2="211.2912" gradientTransform="matrix(11.399 0 0 -17.298 -527.1932 3697.4802)">
				<stop  offset="0" style="stop-color:#E85B7D"/>
				<stop  offset="1" style="stop-color:#FF78AF"/>
			</linearGradient>
			<path id="Path_94" class="st43" d="M37.7,20.1l-0.2,5.2l-0.1,3.5l-0.2,4.8c-5.8,8.6-10,0-10,0l-0.6-5.5l-0.2-1.8l-0.1-1.1
				L37.7,20.1z"/>
			<path id="Path_95" class="st17" d="M37.4,25.1l0,3.5c-1.4,1.9-3.3,4-4.8,4.1c-2,0.1-4.6-2.7-6-4.4l-0.3-1.8
				C29,24.7,34.4,24.9,37.4,25.1z"/>
			<path id="Path_96" class="st25" d="M21.7,15.7c0,0-1.4-5.2-0.8-7.7s2.9-1.4,2.9-1.4c-0.7-1.4-0.5-3.2,0.6-4.4
				C26.2,0.1,33.6-0.9,38,1s1.7,5.8,1.7,5.8s5.5-1.4,1.7,8.3l-8.4,3.5l-11.2-2.7V15.7z"/>
			
				<linearGradient id="Path_97_1_" gradientUnits="userSpaceOnUse" x1="37.2544" y1="214.8342" x2="35.6234" y2="214.9132" gradientTransform="matrix(4.3772 0 0 -6.7889 -136.4997 1476.3513)">
				<stop  offset="0" style="stop-color:#E85B7D"/>
				<stop  offset="1" style="stop-color:#FF78AF"/>
			</linearGradient>
			<path id="Path_97" class="st44" d="M24.2,15.6c0,0-2.1-2.2-2.8-0.8s0.8,6.6,4.2,6.3L24.2,15.6z"/>
			
				<linearGradient id="Path_98_1_" gradientUnits="userSpaceOnUse" x1="36.0334" y1="214.8663" x2="37.0334" y2="214.8663" gradientTransform="matrix(4.3772 0 0 -6.7889 -120.2151 1476.3513)">
				<stop  offset="0" style="stop-color:#E85B7D"/>
				<stop  offset="1" style="stop-color:#FF78AF"/>
			</linearGradient>
			<path id="Path_98" class="st45" d="M38.9,15.6c0,0,2.1-2.2,2.8-0.8s-0.8,6.6-4.2,6.3L38.9,15.6z"/>
			
				<linearGradient id="Path_99_1_" gradientUnits="userSpaceOnUse" x1="51.074" y1="211.7593" x2="50.129" y2="212.5603" gradientTransform="matrix(15.55 0 0 -23.4673 -763.446 4985.3428)">
				<stop  offset="0" style="stop-color:#E85B7D"/>
				<stop  offset="1" style="stop-color:#FF78AF"/>
			</linearGradient>
			<path id="Path_99" class="st46" d="M39.6,15.5L39.6,15.5c0,0.3-1.1,9.2-1.7,10.9c-1,1.9-2.6,3.5-4.6,4.3
				c-0.4,0.2-0.9,0.3-1.3,0.2c-1.7-0.2-3.3-1.1-4.4-2.4c-0.6-0.7-1.2-1.4-1.6-2.2C25,24.4,24,14.5,24,14.5c1.1-1.4,1.7-3.1,1.8-4.9
				C25.9,9.2,26,8.8,26,8.3c0,0,7.7-2.5,12.6,0.9c0,0,0,0,0,0.1C38.4,11.4,38.8,13.5,39.6,15.5z"/>
			<path id="Path_100" class="st17" d="M39.4,15c0,0.3-0.6,9.3-1,10.9c-0.9,2-2.4,3.6-4.3,4.6C37.8,28,39.3,15.3,39.4,15z"/>
			<path id="Path_101" class="st17" d="M38,8.8C38,8.8,38,8.8,38,8.8C32.8,7.7,27.2,9.3,25.3,10c0-0.4,0-0.8,0-1.3
				C25.3,8.7,32.9,5.7,38,8.8z"/>
			<path id="Path_102" class="st4" d="M32.9,99.3c-2.5,0-5-0.1-7.5-0.5c-2.7-0.3-5.3-1-7.8-1.9l-1.5-38.2c0,0-2.4,7.7-3.1,11
				c-0.1,0.4-0.2,0.9-0.2,1.3c0.2,1.2,1.9,9.6,1.9,9.6l-8.7,3.3c0,0-4.3-8.5-4.3-11.4S8,42.1,9.4,40s17.8-6.4,17.8-6.4L32.9,99.3z"
				/>
			<path id="Path_103" class="st4" d="M52.4,72c0.1-0.7,0.1-1.4,0-2.1c-0.3-1.5-2.4-7.9-2.4-7.9c0.3,3.6,2.4,38.1,2.4,38.1
				c-2,0.1-4.3,0-6.4-0.2c-3.7-0.2-6.8-0.6-6.8-0.6l-1.7-65.7c6.2,0.7,12.2,2.4,17.8,5.1c0.9,0.6,7.2,30.1,7.2,31.3
				s-2.6,9.9-2.6,9.9l-8.5-2.4l-0.1,0c0,0,0-0.1,0-0.2c0.1-0.8,0.6-3.2,0.8-5.2l0,0v0L52.4,72L52.4,72z"/>
			
				<linearGradient id="Path_104_1_" gradientUnits="userSpaceOnUse" x1="49.8853" y1="210.3029" x2="52.3823" y2="211.7589" gradientTransform="matrix(14.416 0 0 -51.592 -712.5479 10953.8047)">
				<stop  offset="0" style="stop-color:#FF911E"/>
				<stop  offset="1" style="stop-color:#FE931E;stop-opacity:0"/>
			</linearGradient>
			<path id="Path_104" class="st47" d="M25.4,98.8c-2.7-0.3-5.3-1-7.8-1.9l-1.5-38.2c0,0-2.4,7.7-3.1,11l-2,5.8l6.3-28.2
				c1.9,7.7,2.5,15.6,1.8,23.4C18.3,81.1,25.3,89.1,25.4,98.8z"/>
			<path id="Path_105" class="st48" d="M51.5,77.5c0,0,0-0.1,0-0.2C51.6,77.4,51.6,77.4,51.5,77.5L51.5,77.5z"/>
			<path id="Path_106" class="st48" d="M52.4,72C52.4,72,52.4,72,52.4,72L52.4,72z"/>
			
				<linearGradient id="Path_107_1_" gradientUnits="userSpaceOnUse" x1="45.7182" y1="210.3573" x2="38.2082" y2="212.0912" gradientTransform="matrix(6.87 0 0 -54.7647 -252.2346 11620.668)">
				<stop  offset="0" style="stop-color:#FF911E"/>
				<stop  offset="1" style="stop-color:#FE931E;stop-opacity:0"/>
			</linearGradient>
			<path id="Path_107" class="st49" d="M50,61.9c0.3,3.6,2.4,38.1,2.4,38.1c-2,0.1-4.3,0-6.4-0.2c3.7-7.4,2.5-22.6,1.3-30
				c-1.3-8.3,0-24.6,0-24.6s5.5,20.9,5.5,21.6c0,0.7-0.4,4.4-0.5,5.1c0.1-0.7,0.1-1.4,0-2.1C52.1,68.4,50,61.9,50,61.9z"/>
			
				<linearGradient id="Path_108_1_" gradientUnits="userSpaceOnUse" x1="51.1238" y1="212.0667" x2="51.8528" y2="211.0137" gradientTransform="matrix(16.499 0 0 -26.548 -834.9087 5707.8228)">
				<stop  offset="0" style="stop-color:#E85B7D"/>
				<stop  offset="1" style="stop-color:#FF78AF"/>
			</linearGradient>
			<path id="Path_108" class="st50" d="M22.6,103.3c-0.2,0.6-0.5,1.2-1,1.6c-0.8,0.9-1.8,1.6-2.9,2.1c-4.2-6.6-12.6-23.2-12.6-23.2
				l5.9-2.3l2.8-1c0.4,0.8,1.7,5.9,3.4,11.4S22.6,103.3,22.6,103.3z"/>
			<path id="Path_109" class="st17" d="M22.6,103.3c-0.2,0.6-0.5,1.2-1,1.6c-1.2-5.4-3.9-7-5.3-13.2c-0.9-3.6-2.3-7-4.3-10.2l2.8-1
				c0.4,0.8,1.7,5.9,3.4,11.4S22.6,103.3,22.6,103.3z"/>
			<path id="Path_110" class="st51" d="M16.1,83.2c0,0-9.1,3.3-9.6,3.6s-3-4.8-3-4.8l11.8-4.2C15.4,77.8,16.8,82.2,16.1,83.2z"/>
			<path id="Path_111" class="st42" d="M44.3,34.3c0,0-1.8,44.3,10.4,55.3l-1.9,4.1c0,0-14.2-14.3-12-59.7
				C40.9,34,42.1,33.3,44.3,34.3z"/>
			
				<linearGradient id="Path_112_1_" gradientUnits="userSpaceOnUse" x1="48.7967" y1="211.5063" x2="48.1327" y2="210.5713" gradientTransform="matrix(10.6582 0 0 -40.504 -462.3484 8646.457)">
				<stop  offset="0" style="stop-color:#E85B7D"/>
				<stop  offset="1" style="stop-color:#FF78AF"/>
			</linearGradient>
			<path id="Path_112" class="st52" d="M58.1,105.1c0.3,0.9,0.6,6-0.8,6.6s-4.5,0.3-4.5,0.3s5.1,5.5,4.3,5.7s-5.4-3.9-5.7-4.8
				s-2.3-8.4-2.1-12.3s2.1-23.4,2.1-23.4l5.3,1.7l3.3,1c-1,3-6.1,21-6.1,21c0,0,0,0,0,0.1c1.1,2.4,2.7,8.3,2.7,8.3
				S57.8,104.2,58.1,105.1z"/>
			<path id="Path_113" class="st17" d="M53.9,100.9C53.9,100.9,53.9,101,53.9,100.9l-1.5,1.8c1.8-4.6,0.9-9.6,3-15.3
				c1-2.7,1.5-5.6,1.4-8.5l3.3,1C59.1,82.9,53.9,100.9,53.9,100.9z"/>
			<path id="Path_114" class="st51" d="M50.3,76.2l11.8,3.3c-0.6,1.6-1.3,3.1-2.1,4.6c-3.3-0.6-6.5-1.5-9.6-2.5
				C50.3,81.3,50.3,76.2,50.3,76.2z"/>
		</g>
		<g id="Group_25" transform="translate(103.069 122.462)">
			<path id="Path_115" class="st19" d="M25.3,215.5c1.8,1.2,15.7-6.1,16.8-6.9c1-0.7,0.2-6.2,0-7.3c0-0.1,0-0.2,0-0.2l0-3.4
				l-7.9-1.5l0.2,5l0,0.4c0.2,0.8,0,1.7-0.5,2.4C33.3,205.1,23.5,214.2,25.3,215.5z"/>
			<path id="Path_116" class="st53" d="M34.3,196.2l0.2,5c2.4,1.1,5.2,1.1,7.7,0.1c0-0.1,0-0.2,0-0.2l0-3.4L34.3,196.2z"/>
			<path id="Path_117" class="st19" d="M57.8,208.1c0.8,0.9,3.5,0.6,5.6,0.8s16.8,2.1,17.5,0c0.7-2.1-14.8-7.3-15.8-7.6l-0.1,0
				l0.1-3.8l-7.5-2.2l0.1,6.2l0,0.1C57.7,202.2,57.1,207.3,57.8,208.1z"/>
			<path id="Path_118" class="st53" d="M57.8,201.4L57.8,201.4c2.4,0.6,5,0.6,7.4-0.1l-0.1,0l0.1-3.8l-7.5-2.2L57.8,201.4z"/>
			
				<linearGradient id="Path_119_1_" gradientUnits="userSpaceOnUse" x1="-14.9433" y1="220.6388" x2="-15.0133" y2="219.6808" gradientTransform="matrix(39.2274 0 0 -107.438 670.1877 22527.8066)">
				<stop  offset="0" style="stop-color:#BF1E24"/>
				<stop  offset="1" style="stop-color:#EC1E24"/>
			</linearGradient>
			<path id="Path_119" class="st54" d="M29.3,132.5l1.8,17.5c0,0,1.2,27.6,3.4,48.4c0.7,0.3,1.4,0.6,2.1,0.7
				c1.9,0.5,3.8,0.2,5.5-0.7c0,0,2.6-48.2,3.1-52.8c0.4-3.8,1.1-22.2,1.3-28.5c0-1.3,0.1-2.1,0.1-2.1s7.6,31,8.2,33.4s2,37.1,3.2,50
				c0.5,0.2,1,0.3,1.6,0.4c1.9,0.3,3.8,0.2,5.6-0.4c0,0,3.1-51.3,3.4-54.5s-2.7-21.4-2.7-21.4L53.4,91.9L52.7,92l-17.9,1.5
				L29.3,132.5z"/>
			
				<linearGradient id="Path_120_1_" gradientUnits="userSpaceOnUse" x1="46.3431" y1="324.1412" x2="45.5471" y2="322.6982" gradientTransform="matrix(23.395 0 0 -107.132 447.4415 22464.0586)">
				<stop  offset="0" style="stop-color:#EC1E24"/>
				<stop  offset="1" style="stop-color:#EC1E24;stop-opacity:0"/>
			</linearGradient>
			<path id="Path_120" class="st55" d="M29.3,132.5l1.8,17.5c0,0,1.2,27.6,3.4,48.4c0.7,0.3,1.4,0.6,2.1,0.7l0,0
				c-1-2.9-0.5-16.2-0.1-24.4s0.2-10.4-1.1-22.3s4.6-23.2,5.8-36.9s9.2-13.9,9.2-13.9l2.3-9.6l-17.9,1.5L29.3,132.5z"/>
			
				<linearGradient id="Path_121_1_" gradientUnits="userSpaceOnUse" x1="149.975" y1="427.4224" x2="148.924" y2="426.0674" gradientTransform="matrix(14.0837 0 0 -90.756 333.6003 19065.0781)">
				<stop  offset="0" style="stop-color:#6D5BB8"/>
				<stop  offset="1" style="stop-color:#604AB7;stop-opacity:0"/>
			</linearGradient>
			<path id="Path_121" class="st56" d="M46.5,108v9.1c0-1.3,0.1-2.1,0.1-2.1s7.6,31,8.2,33.4s2,37.1,3.2,50c0.5,0.2,1,0.3,1.6,0.4
				c0.4-4.9-0.3-14.1-0.7-25c-0.4-8.8,0.1-17.7,1.7-26.4c0.6-3.8-4.1-8.2-7-17.7S46.5,108,46.5,108z"/>
			<path id="Path_122" class="st33" d="M34.8,39l1.7,28.1l1.8,28.5c9.5,3.1,13.6,0,13.6,0l0.4-13.4l1.1-38.6l-6.3-6.4
				c0,0-4.1,8.7-5.5,8.4S34.8,39,34.8,39z"/>
			<path id="Path_123" class="st36" d="M36.5,67.1l1.8,28.5c9.5,3.1,13.6,0,13.6,0l0.4-13.4c-0.8-0.4-1.6-0.6-2.5-0.6
				c-9.2-0.2-12.4-25.5-12.4-25.5L36.5,67.1z"/>
			<path id="Path_124" class="st24" d="M79.6,64.8"/>
			<path id="Path_125" class="st57" d="M33.4,3.7c-0.4-1.9-1.9-3.4-3.8-3.7c-3.5-0.8-9.8,4.1-8.7,12.5s7.6,5,7.6,5L33.4,3.7z"/>
			<path id="Path_126" class="st25" d="M49,20.7l1.2,11.9c0,0,2.2-20.5,1.1-24.1C50,4.7,47,2.4,44.4,5.6c0,0-0.6-3.7-5.9-4
				S27.3,6.5,27,16.6c-0.2,5.9,2.6,11.5,7.4,14.9L49,20.7z"/>
			
				<linearGradient id="Path_127_1_" gradientUnits="userSpaceOnUse" x1="16.6616" y1="139.2772" x2="16.1246" y2="140.4202" gradientTransform="matrix(34.932 0 0 -33.2318 656.1652 6998.8501)">
				<stop  offset="0" style="stop-color:#E85B7D"/>
				<stop  offset="1" style="stop-color:#FF78AF"/>
			</linearGradient>
			<path id="Path_127" class="st58" d="M75.7,66l4.6,2.9l3.4,2.1c0,0,8.8-27,10-27.6s9.6-1.1,10.5-1.5c0.2-0.1,0.8-0.4,1.5-0.8l0,0
				c2.1-1.2,5.3-3.2,4.9-3.3c-0.6-0.2-3.2,1.5-5.5,1.7S94.3,38.1,92.3,39s-4.3,5.5-7,10.5S75.7,66,75.7,66z"/>
			<path id="Path_128" class="st17" d="M80.3,68.9l3.4,2.1c0,0,8.8-27,10-27.6s9.6-1.1,10.5-1.5c0.2-0.1,0.8-0.4,1.5-0.8
				c-3.2,0.4-6.4,0.7-9.6,0.8c-3.5,0-4.7,0.6-5.8,5s-6.9,19.5-9.6,21.5C80.5,68.5,80.4,68.7,80.3,68.9z"/>
			
				<linearGradient id="Path_129_1_" gradientUnits="userSpaceOnUse" x1="1472.0011" y1="212.7622" x2="1473.0011" y2="212.7622" gradientTransform="matrix(4.192 0 0 -6.562 218.6123 1465.3955)">
				<stop  offset="0" style="stop-color:#891531"/>
				<stop  offset="1" style="stop-color:#891531;stop-opacity:0"/>
			</linearGradient>
			<path id="Path_129" class="st59" d="M70.6,72.5l4.2-5.5l-1.9,2.4c0,0-0.4-1.4-1.1-3.5L70.6,72.5z"/>
			
				<linearGradient id="Path_130_1_" gradientUnits="userSpaceOnUse" x1="107.6668" y1="40.5482" x2="107.1268" y2="41.2692" gradientTransform="matrix(18.2441 0 0 -37.6791 376.7076 7897.9097)">
				<stop  offset="0" style="stop-color:#E85B7D"/>
				<stop  offset="1" style="stop-color:#FF78AF"/>
			</linearGradient>
			<path id="Path_130" class="st60" d="M32.3,23.6C33,24,33.9,23,33.9,23c0.3,3.6,1.6,10.8,1.3,14.3c-0.1,1.3-2,1.8-2,1.8
				s6.3,8.2,8.6,8s6.4-9.9,6.4-9.9c-1.1,0.1-2.3,0-3.4-0.3c-0.5-0.2-0.8-0.5-1-1c-0.5-0.9-0.8-2-0.9-3c0-0.1,0-0.1,0-0.1
				c0.1,0.1,0.2,0.2,0.4,0.3h0c0.3,0.1,0.6,0.2,0.9,0.2h0c0.3,0,0.6,0,0.9-0.1l0,0c0.3-0.1,0.7-0.2,1-0.3c0.1,0,0.1-0.1,0.2-0.1
				c2.3-1.7,3-15.3,3-15.3c-0.4-0.2-0.7-0.5-1.1-0.8c-2.3-1.9-4.2-4.4-5.3-7.2c-0.3,0.9-0.6,1.8-1,2.6c-1.7,3.4-4.1,6.4-7.1,8.8
				c0,0-1.8-4.9-3.2-3.5S31.7,23.1,32.3,23.6z"/>
			<path id="Path_131" class="st25" d="M34.8,20.8c0,0,0.5,9.3,2.3,13.1c0,0-0.9-12.4,0.8-18L34.8,20.8z"/>
			<path id="Path_132" class="st4" d="M49.1,74.2c-0.9,17.1,1.1,45.8,3.1,55.2s19.5,4.6,19.5,4.6s-2.9-14.8-5.5-24.7
				c-2.1-7.9-4.8-30.8-5.8-39.9c-0.3-2.3-0.4-3.7-0.4-3.7S66.5,86,71.7,86.4c0.8,0,1.6-0.2,2.3-0.8c4.8-3.3,10.4-16.2,10.4-16.2
				l-7.9-4.4l-1.6,2l0,0l-1.9,2.4c0,0-0.4-1.4-1.1-3.5c-2.3-7-7.4-22.4-10.5-25.9c-4-4.6-15.3-2.8-15.3-2.8S49.9,59.3,49.1,74.2z"/>
			
				<linearGradient id="Path_133_1_" gradientUnits="userSpaceOnUse" x1="249.7458" y1="7.1463" x2="248.4128" y2="8.1453" gradientTransform="matrix(15.093 0 0 -32.0338 360.2354 6765.6504)">
				<stop  offset="0" style="stop-color:#FF911E"/>
				<stop  offset="1" style="stop-color:#FE931E;stop-opacity:0"/>
			</linearGradient>
			<path id="Path_133" class="st61" d="M60.4,69.4c-0.3-2.3-0.4-3.7-0.4-3.7S66.5,86,71.7,86.4c0.8,0,1.6-0.2,2.3-0.8
				c-1.7-0.7-3.1-2.2-3.7-4c-2.1-5.6-2.4-11.1-6.1-14.5s-4.4-9.2-5.3-12.8C59,59.4,59.5,64.4,60.4,69.4z"/>
			<path id="Path_134" class="st4" d="M0,75.6c0.5,4.1,6.1,8.1,6.1,8.1l6-6.7l0.6-0.6l-2.3-2.1l15.1-13c0,0,0,0.2,0,0.6
				c0.1,3.4,0.9,21.7,1.5,31.6c0.6,11-2.3,41.8-2.3,41.8s16.2,2.6,18.2-7.2s-2-51.3-2.1-55.7s-6.5-33.8-6.5-33.8s-8.5,0.5-12,3.4
				S-0.4,71.5,0,75.6z"/>
			
				<linearGradient id="Path_135_1_" gradientUnits="userSpaceOnUse" x1="175.8868" y1="358.4124" x2="177.5517" y2="359.6954" gradientTransform="matrix(20.743 0 0 -26.392 387.7062 5585.3066)">
				<stop  offset="0" style="stop-color:#FF911E"/>
				<stop  offset="1" style="stop-color:#FE931E;stop-opacity:0"/>
			</linearGradient>
			<path id="Path_135" class="st62" d="M6.9,72.8l5.2,4.1l0.6-0.6l-2.3-2.1l15.1-13c0,0,0,0.2,0,0.6l2.1-11.2
				c-3,3.6-5.7,7.3-8.1,11.3C15,69.2,6.9,72.8,6.9,72.8z"/>
			
				<linearGradient id="Path_136_1_" gradientUnits="userSpaceOnUse" x1="58.5365" y1="293.4134" x2="57.6185" y2="292.3754" gradientTransform="matrix(38.1473 0 0 -24.258 631.805 5166.2095)">
				<stop  offset="0" style="stop-color:#E85B7D"/>
				<stop  offset="1" style="stop-color:#FF78AF"/>
			</linearGradient>
			<path id="Path_136" class="st63" d="M6.1,83.7c7.2,4.3,22.4,12.2,22.4,12.2c0.6,0.7,1.3,1.3,2.1,1.7c1.7,0.9,7,0,7.6,0.3
				s1.8,3.1,2.1,2.9s-0.5-3.2-0.6-3.7s-4-1.8-4-1.8s4,0.8,4.4,1.4s2.7,3.8,2.9,3.7c-0.4-1.8-1.1-3.5-2-5c-1.3-0.8-2.8-1.5-4.2-2
				c1.5,0.1,3,0.5,4.4,1.1c0.9,0.5,2.3,2.7,2.7,2.9s-0.2-2-0.5-2.6s-4.4-3.1-5.6-3.5c-0.8-0.3-2.9,0-4.7,0.2c-0.9,0.1-1.8,0-2.6-0.2
				c-1.8-0.6-18-14.6-18-14.6L11,78.3L6.1,83.7z"/>
			<path id="Path_137" class="st17" d="M11,78.3c2.6,2,12.9,9.8,15.8,11.7c1.9,1.3,4.2,1.8,6.5,1.2c-0.9,0.1-1.8,0-2.6-0.2
				c-1.8-0.6-18-14.6-18-14.6L11,78.3z"/>
			<path id="Path_138" class="st17" d="M41.9,12c1.9,1.8,4,3.3,6.3,4.5c-2.3-1.9-4.2-4.4-5.3-7.2C42.6,10.3,42.3,11.2,41.9,12z"/>
			
				<linearGradient id="Path_139_1_" gradientUnits="userSpaceOnUse" x1="74.8678" y1="-667.9662" x2="74.6705" y2="-666.8502" gradientTransform="matrix(1.171 0 0 -0.57 150.5797 182.358)">
				<stop  offset="0" style="stop-color:#E85B7D"/>
				<stop  offset="1" style="stop-color:#FF78AF"/>
			</linearGradient>
			<path id="Path_139" class="st64" d="M45.1,33.1c0.3-0.1,0.7-0.2,1-0.3c0.1,0,0.1-0.1,0.2-0.1c-0.2-0.1-0.3-0.1-0.3-0.1
				C45.7,32.8,45.4,32.9,45.1,33.1z"/>
			
				<linearGradient id="Path_140_1_" gradientUnits="userSpaceOnUse" x1="-73.9566" y1="-157.647" x2="-73.9995" y2="-157.072" gradientTransform="matrix(0.887 0 0 -0.1835 144.7411 102.2802)">
				<stop  offset="0" style="stop-color:#E85B7D"/>
				<stop  offset="1" style="stop-color:#FF78AF"/>
			</linearGradient>
			<path id="Path_140" class="st65" d="M43.3,33c0.3,0.1,0.6,0.2,0.9,0.2C43.8,33.2,43.5,33.1,43.3,33z"/>
			<path id="Path_141" class="st17" d="M39.3,29.4c0,0,0.1,5.7,4.5,6.4c-0.5-0.9-0.8-2-0.9-3C41.4,32,40.2,30.9,39.3,29.4z"/>
		</g>
		<g id="Group_27" transform="translate(397.455 53.425)">
			<path id="Path_142" class="st66" d="M56.7,0H6.9C4.4,0,2.3,2.1,2.3,4.6c0,0,0,0,0,0v35.6c0,1.7,0.9,3.2,2.4,4.1L0.1,57.5
				c-0.2,0.7,0.1,1.4,0.8,1.6c0.4,0.2,0.9,0.1,1.2-0.2L19,44.8h37.7c2.6,0,4.6-2.1,4.6-4.6l0,0V4.6C61.3,2.1,59.2,0,56.7,0
				C56.7,0,56.7,0,56.7,0z"/>
			<g id="Group_26" transform="translate(17.573 8.168)">
				<path id="Path_143" class="st4" d="M28.5,14.2c0,7.9-6.4,14.3-14.2,14.3C6.4,28.5,0,22.1,0,14.3S6.4,0,14.2,0c0,0,0,0,0,0
					C22.1,0,28.5,6.3,28.5,14.2C28.5,14.2,28.5,14.2,28.5,14.2z"/>
				<path id="Path_144" class="st11" d="M23.5,25.1c-5.3,4.5-13,4.5-18.3,0.1c0.2-2.5,0.9-4.9,2.1-7.1c0.7-1.3,2.3-1.8,3.6-1.2
					c2.2,1,4.7,1,6.8,0c1.3-0.6,2.9-0.1,3.7,1.2C22.5,20.2,23.2,22.6,23.5,25.1z"/>
				<path id="Path_145" class="st11" d="M20.2,9.6c0,3.3-2.6,5.9-5.9,5.9c-3.3,0-5.9-2.6-5.9-5.9c0-3.3,2.6-5.9,5.9-5.9
					C17.5,3.7,20.2,6.4,20.2,9.6C20.2,9.6,20.2,9.6,20.2,9.6z"/>
			</g>
		</g>
		<g id="Group_29" transform="translate(0 53.471)">
			<path id="Path_146" class="st66" d="M59,40.2V4.6C59,2.1,56.9,0,54.4,0c0,0,0,0,0,0H4.6C2.1,0,0,2.1,0,4.6c0,0,0,0,0,0v35.6
				c0,2.6,2.1,4.6,4.6,4.6c0,0,0,0,0,0h36.3l15.3,16.2c0.3,0.3,0.9,0.4,1.2,0c0.2-0.2,0.3-0.5,0.3-0.8l-3.1-15.5
				C57,44.7,59,42.7,59,40.2z"/>
			<g id="Group_28" transform="translate(9.968 2.906)">
				<circle id="Ellipse_3" class="st4" cx="19.6" cy="19.6" r="14.1"/>
				<path id="Path_147" class="st11" d="M22.2,13.9c0,0,1.3-3.9,2.3-4s5,2.5,4.3,6.8s-6.6,10.5-11.2,10.9s-7.7-2.5-7.2-3.4
					s2.3-3.4,4-2.5s3.1,2.6,5,1.1s5.1-4.2,5.3-5.6S22.2,15.4,22.2,13.9z"/>
			</g>
		</g>
		<g id="Group_30" transform="translate(86.251 45.805)">
			<path id="Path_148" class="st66" d="M54.4,0H4.6C2.1,0,0,2.1,0,4.6l0,0v35.6c0,2.6,2.1,4.6,4.6,4.6h0h23.7l10.9,19.5
				c0.2,0.4,0.7,0.5,1.1,0.3c0.3-0.2,0.4-0.5,0.4-0.8l-1.2-19h14.8c2.6,0,4.6-2.1,4.6-4.6l0,0V4.6C59,2.1,56.9,0,54.4,0z"/>
			<path id="Path_149" class="st11" d="M41.2,16.8v12.8c0,0.8-0.7,1.5-1.5,1.5H19.2c-0.8,0-1.4-0.7-1.4-1.5V16.8c0-0.1,0-0.2,0-0.3
				l10.5,5.9c0.8,0.4,1.7,0.4,2.5,0l10.5-5.9C41.2,16.6,41.2,16.7,41.2,16.8z"/>
			<path id="Path_150" class="st11" d="M41.2,14.6l-10.5,5.9c-0.8,0.4-1.7,0.4-2.5,0l-10.5-5.9c0,0,0,0,0-0.1
				c0.1-0.3,0.2-0.6,0.5-0.8c0.2-0.2,0.5-0.3,0.8-0.3c0,0,0.1,0,0.1,0h20.6C40.5,13.4,41.1,13.9,41.2,14.6z"/>
			<path id="Path_151" class="st67" d="M14,13.6C14,13.6,14,13.6,14,13.6L14,13.6C13.9,13.6,14,13.6,14,13.6z"/>
		</g>
	</g>
</g>
</svg>
